<mxfile host="65bd71144e">
    <diagram id="AMx7X5Y6sh2w0Wrs7ESS" name="Page-1">
        <mxGraphModel dx="842" dy="599" grid="1" gridSize="10" guides="1" tooltips="1" connect="1" arrows="1" fold="1" page="1" pageScale="1" pageWidth="850" pageHeight="1100" background="#ffffff" math="0" shadow="0">
            <root>
                <mxCell id="0"/>
                <mxCell id="1" parent="0"/>
                <mxCell id="2" value="Question" style="swimlane;fontStyle=1;align=center;verticalAlign=top;childLayout=stackLayout;horizontal=1;startSize=26;horizontalStack=0;resizeParent=1;resizeParentMax=0;resizeLast=0;collapsible=1;marginBottom=0;whiteSpace=wrap;html=1;labelBackgroundColor=default;" parent="1" vertex="1">
                    <mxGeometry x="20" y="73" width="160" height="116" as="geometry"/>
                </mxCell>
                <mxCell id="3" value="+ title: String&lt;div&gt;+ choices: List&lt;/div&gt;&lt;div&gt;+ goodChoice: String&lt;/div&gt;&lt;div&gt;+ point: int&lt;/div&gt;&lt;div&gt;+id: String&lt;/div&gt;" style="text;strokeColor=none;fillColor=none;align=left;verticalAlign=top;spacingLeft=4;spacingRight=4;overflow=hidden;rotatable=0;points=[[0,0.5],[1,0.5]];portConstraint=eastwest;whiteSpace=wrap;html=1;" parent="2" vertex="1">
                    <mxGeometry y="26" width="160" height="82" as="geometry"/>
                </mxCell>
                <mxCell id="4" value="" style="line;strokeWidth=1;fillColor=none;align=left;verticalAlign=middle;spacingTop=-1;spacingLeft=3;spacingRight=3;rotatable=0;labelPosition=right;points=[];portConstraint=eastwest;strokeColor=inherit;" parent="2" vertex="1">
                    <mxGeometry y="108" width="160" height="8" as="geometry"/>
                </mxCell>
                <mxCell id="6" value="Answer" style="swimlane;fontStyle=1;align=center;verticalAlign=top;childLayout=stackLayout;horizontal=1;startSize=26;horizontalStack=0;resizeParent=1;resizeParentMax=0;resizeLast=0;collapsible=1;marginBottom=0;whiteSpace=wrap;html=1;" parent="1" vertex="1">
                    <mxGeometry x="20" y="290" width="160" height="116" as="geometry"/>
                </mxCell>
                <mxCell id="7" value="+ answerChoice: String&lt;div&gt;+ id: String&lt;/div&gt;&lt;div&gt;+ questionId: string&lt;/div&gt;" style="text;strokeColor=none;fillColor=none;align=left;verticalAlign=top;spacingLeft=4;spacingRight=4;overflow=hidden;rotatable=0;points=[[0,0.5],[1,0.5]];portConstraint=eastwest;whiteSpace=wrap;html=1;" parent="6" vertex="1">
                    <mxGeometry y="26" width="160" height="56" as="geometry"/>
                </mxCell>
                <mxCell id="8" value="" style="line;strokeWidth=1;fillColor=none;align=left;verticalAlign=middle;spacingTop=-1;spacingLeft=3;spacingRight=3;rotatable=0;labelPosition=right;points=[];portConstraint=eastwest;strokeColor=inherit;" parent="6" vertex="1">
                    <mxGeometry y="82" width="160" height="8" as="geometry"/>
                </mxCell>
                <mxCell id="9" value="+ isGood(): bool" style="text;strokeColor=none;fillColor=none;align=left;verticalAlign=top;spacingLeft=4;spacingRight=4;overflow=hidden;rotatable=0;points=[[0,0.5],[1,0.5]];portConstraint=eastwest;whiteSpace=wrap;html=1;" parent="6" vertex="1">
                    <mxGeometry y="90" width="160" height="26" as="geometry"/>
                </mxCell>
                <mxCell id="17" value="Quiz" style="swimlane;fontStyle=1;align=center;verticalAlign=top;childLayout=stackLayout;horizontal=1;startSize=26;horizontalStack=0;resizeParent=1;resizeParentMax=0;resizeLast=0;collapsible=1;marginBottom=0;whiteSpace=wrap;html=1;" parent="1" vertex="1">
                    <mxGeometry x="334" y="73" width="180" height="173" as="geometry"/>
                </mxCell>
                <mxCell id="18" value="+ questions: List&lt;div&gt;+ answers: List&lt;/div&gt;" style="text;strokeColor=none;fillColor=none;align=left;verticalAlign=top;spacingLeft=4;spacingRight=4;overflow=hidden;rotatable=0;points=[[0,0.5],[1,0.5]];portConstraint=eastwest;whiteSpace=wrap;html=1;" parent="17" vertex="1">
                    <mxGeometry y="26" width="180" height="42" as="geometry"/>
                </mxCell>
                <mxCell id="19" value="" style="line;strokeWidth=1;fillColor=none;align=left;verticalAlign=middle;spacingTop=-1;spacingLeft=3;spacingRight=3;rotatable=0;labelPosition=right;points=[];portConstraint=eastwest;strokeColor=inherit;" parent="17" vertex="1">
                    <mxGeometry y="68" width="180" height="8" as="geometry"/>
                </mxCell>
                <mxCell id="20" value="+ addAnswer: void&lt;div&gt;+ getScoreInPercentage(): int&lt;/div&gt;&lt;div&gt;+ addPlayer(): void&lt;/div&gt;&lt;div&gt;+ getQuestionId: Question&lt;/div&gt;&lt;div&gt;+ get AnswerId: Answer&lt;/div&gt;&lt;div&gt;+ displayAllScore: void&lt;/div&gt;" style="text;strokeColor=none;fillColor=none;align=left;verticalAlign=top;spacingLeft=4;spacingRight=4;overflow=hidden;rotatable=0;points=[[0,0.5],[1,0.5]];portConstraint=eastwest;whiteSpace=wrap;html=1;" parent="17" vertex="1">
                    <mxGeometry y="76" width="180" height="97" as="geometry"/>
                </mxCell>
                <mxCell id="21" value="" style="endArrow=open;html=1;endSize=12;startArrow=diamondThin;startSize=14;startFill=1;edgeStyle=orthogonalEdgeStyle;align=left;verticalAlign=bottom;entryX=1;entryY=0.5;entryDx=0;entryDy=0;" parent="1" target="3" edge="1">
                    <mxGeometry x="-1" y="3" relative="1" as="geometry">
                        <mxPoint x="332" y="130" as="sourcePoint"/>
                        <mxPoint x="182" y="130" as="targetPoint"/>
                    </mxGeometry>
                </mxCell>
                <mxCell id="22" value="1" style="endArrow=open;html=1;endSize=12;startArrow=diamondThin;startSize=14;startFill=1;edgeStyle=orthogonalEdgeStyle;align=left;verticalAlign=bottom;entryX=1;entryY=0.5;entryDx=0;entryDy=0;exitX=0.492;exitY=1;exitDx=0;exitDy=0;exitPerimeter=0;" parent="1" target="7" edge="1" source="20">
                    <mxGeometry x="-0.8546" y="17" relative="1" as="geometry">
                        <mxPoint x="420" y="260" as="sourcePoint"/>
                        <mxPoint x="260" y="350" as="targetPoint"/>
                        <mxPoint as="offset"/>
                        <Array as="points">
                            <mxPoint x="423" y="280"/>
                            <mxPoint x="310" y="280"/>
                            <mxPoint x="310" y="344"/>
                        </Array>
                    </mxGeometry>
                </mxCell>
                <mxCell id="23" value="*" style="text;align=center;fontStyle=1;verticalAlign=middle;spacingLeft=3;spacingRight=3;strokeColor=none;rotatable=0;points=[[0,0.5],[1,0.5]];portConstraint=eastwest;html=1;fontSize=23;" parent="1" vertex="1">
                    <mxGeometry x="200" y="350" width="30" height="26" as="geometry"/>
                </mxCell>
                <mxCell id="24" value="*" style="text;align=center;fontStyle=1;verticalAlign=middle;spacingLeft=3;spacingRight=3;strokeColor=none;rotatable=0;points=[[0,0.5],[1,0.5]];portConstraint=eastwest;html=1;fontSize=23;" parent="1" vertex="1">
                    <mxGeometry x="200" y="104" width="30" height="26" as="geometry"/>
                </mxCell>
                <mxCell id="25" value="1" style="text;align=center;fontStyle=1;verticalAlign=middle;spacingLeft=3;spacingRight=3;strokeColor=none;rotatable=0;points=[[0,0.5],[1,0.5]];portConstraint=eastwest;html=1;fontSize=14;" parent="1" vertex="1">
                    <mxGeometry x="300" y="100" width="32" height="30" as="geometry"/>
                </mxCell>
                <mxCell id="26" value="Player" style="swimlane;fontStyle=0;childLayout=stackLayout;horizontal=1;startSize=26;fillColor=none;horizontalStack=0;resizeParent=1;resizeParentMax=0;resizeLast=0;collapsible=1;marginBottom=0;whiteSpace=wrap;html=1;" parent="1" vertex="1">
                    <mxGeometry x="570" y="238" width="140" height="101" as="geometry"/>
                </mxCell>
                <mxCell id="27" value="+ name: String" style="text;strokeColor=none;fillColor=none;align=left;verticalAlign=top;spacingLeft=4;spacingRight=4;overflow=hidden;rotatable=0;points=[[0,0.5],[1,0.5]];portConstraint=eastwest;whiteSpace=wrap;html=1;" parent="26" vertex="1">
                    <mxGeometry y="26" width="140" height="23" as="geometry"/>
                </mxCell>
                <mxCell id="28" value="+ score: int" style="text;strokeColor=none;fillColor=none;align=left;verticalAlign=top;spacingLeft=4;spacingRight=4;overflow=hidden;rotatable=0;points=[[0,0.5],[1,0.5]];portConstraint=eastwest;whiteSpace=wrap;html=1;" parent="26" vertex="1">
                    <mxGeometry y="49" width="140" height="26" as="geometry"/>
                </mxCell>
                <mxCell id="29" value="+ scorePercentage: int" style="text;strokeColor=none;fillColor=none;align=left;verticalAlign=top;spacingLeft=4;spacingRight=4;overflow=hidden;rotatable=0;points=[[0,0.5],[1,0.5]];portConstraint=eastwest;whiteSpace=wrap;html=1;" parent="26" vertex="1">
                    <mxGeometry y="75" width="140" height="26" as="geometry"/>
                </mxCell>
                <mxCell id="43" value="Submission" style="swimlane;fontStyle=1;align=center;verticalAlign=top;childLayout=stackLayout;horizontal=1;startSize=26;horizontalStack=0;resizeParent=1;resizeParentMax=0;resizeLast=0;collapsible=1;marginBottom=0;whiteSpace=wrap;html=1;" parent="1" vertex="1">
                    <mxGeometry x="334" y="400" width="182" height="77" as="geometry"/>
                </mxCell>
                <mxCell id="44" value="+ answer: List&lt;div&gt;+ player: List&lt;/div&gt;" style="text;strokeColor=none;fillColor=none;align=left;verticalAlign=top;spacingLeft=4;spacingRight=4;overflow=hidden;rotatable=0;points=[[0,0.5],[1,0.5]];portConstraint=eastwest;whiteSpace=wrap;html=1;" parent="43" vertex="1">
                    <mxGeometry y="26" width="182" height="43" as="geometry"/>
                </mxCell>
                <mxCell id="45" value="" style="line;strokeWidth=1;fillColor=none;align=left;verticalAlign=middle;spacingTop=-1;spacingLeft=3;spacingRight=3;rotatable=0;labelPosition=right;points=[];portConstraint=eastwest;strokeColor=inherit;" parent="43" vertex="1">
                    <mxGeometry y="69" width="182" height="8" as="geometry"/>
                </mxCell>
                <mxCell id="61" value="1" style="endArrow=open;html=1;endSize=12;startArrow=diamondThin;startSize=14;startFill=0;edgeStyle=orthogonalEdgeStyle;align=left;verticalAlign=bottom;exitX=0;exitY=0.5;exitDx=0;exitDy=0;" edge="1" parent="1" source="44">
                    <mxGeometry x="-0.8472" y="-5" relative="1" as="geometry">
                        <mxPoint x="330" y="463" as="sourcePoint"/>
                        <mxPoint x="110" y="409" as="targetPoint"/>
                        <mxPoint as="offset"/>
                    </mxGeometry>
                </mxCell>
                <mxCell id="KsZFuRwsjX90aDWom2uY-64" value="" style="endArrow=none;html=1;edgeStyle=orthogonalEdgeStyle;entryX=0.5;entryY=0;entryDx=0;entryDy=0;exitX=0.994;exitY=0.116;exitDx=0;exitDy=0;exitPerimeter=0;" edge="1" parent="1" source="20" target="26">
                    <mxGeometry relative="1" as="geometry">
                        <mxPoint x="520" y="161" as="sourcePoint"/>
                        <mxPoint x="670" y="160" as="targetPoint"/>
                    </mxGeometry>
                </mxCell>
                <mxCell id="xNct-4h9NbEjH8FS-WIe-67" value="1" style="endArrow=open;html=1;endSize=12;startArrow=diamondThin;startSize=14;startFill=1;edgeStyle=orthogonalEdgeStyle;align=left;verticalAlign=bottom;entryX=0.5;entryY=0;entryDx=0;entryDy=0;exitX=0.5;exitY=1;exitDx=0;exitDy=0;" edge="1" parent="1" source="2" target="6">
                    <mxGeometry x="-0.5842" y="10" relative="1" as="geometry">
                        <mxPoint x="90" y="190" as="sourcePoint"/>
                        <mxPoint x="250" y="190" as="targetPoint"/>
                        <mxPoint as="offset"/>
                    </mxGeometry>
                </mxCell>
                <mxCell id="xNct-4h9NbEjH8FS-WIe-68" value="*" style="text;align=center;fontStyle=1;verticalAlign=middle;spacingLeft=3;spacingRight=3;strokeColor=none;rotatable=0;points=[[0,0.5],[1,0.5]];portConstraint=eastwest;html=1;fontSize=23;" vertex="1" parent="1">
                    <mxGeometry x="80" y="264" width="80" height="26" as="geometry"/>
                </mxCell>
                <mxCell id="xNct-4h9NbEjH8FS-WIe-70" value="1" style="endArrow=open;html=1;endSize=12;startArrow=diamondThin;startSize=14;startFill=1;edgeStyle=orthogonalEdgeStyle;align=left;verticalAlign=bottom;" edge="1" parent="1">
                    <mxGeometry x="-0.7851" y="8" relative="1" as="geometry">
                        <mxPoint x="516" y="438.08" as="sourcePoint"/>
                        <mxPoint x="640" y="340" as="targetPoint"/>
                        <mxPoint as="offset"/>
                    </mxGeometry>
                </mxCell>
                <mxCell id="xNct-4h9NbEjH8FS-WIe-71" value="*" style="text;align=center;fontStyle=1;verticalAlign=middle;spacingLeft=3;spacingRight=3;strokeColor=none;rotatable=0;points=[[0,0.5],[1,0.5]];portConstraint=eastwest;html=1;fontSize=22;" vertex="1" parent="1">
                    <mxGeometry x="610" y="339" width="20" height="26" as="geometry"/>
                </mxCell>
            </root>
        </mxGraphModel>
    </diagram>
    <diagram id="UfrC2ReHsAUcYZeJUNZ4" name="Page-2">
        <mxGraphModel dx="1554" dy="2206" grid="1" gridSize="10" guides="1" tooltips="1" connect="1" arrows="1" fold="1" page="1" pageScale="1" pageWidth="850" pageHeight="1100" math="0" shadow="0">
            <root>
                <mxCell id="0"/>
                <mxCell id="1" parent="0"/>
                <UserObject label="" mermaidData="{&#xa;  &quot;data&quot;: &quot;classDiagram\nclass Quiz {\n  +questions: List&lt;Question&gt;\n  +answers: List&lt;Answer&gt;\n  +players: Map&lt;String, Player&gt;\n  +addAnswer(answer): void\n  +addPlayer(player): void\n  +getScoreInPercentage(): double\n  +getPoint(): int\n  +displayAllScores(): void\n}\n\nclass Question {\n  +id: String\n  +title: String\n  +choices: List&lt;String&gt;\n  +goodChoice: String\n  +point: int\n}\n\nclass Answer {\n  +id: String\n  +questionId: String\n  +answerChoice: String\n  +isGood(quiz: Quiz): bool\n}\n\nclass Player {\n  +name: String\n  +score: int\n  +scorePercentage: double\n  +toJson(): Map&lt;String, dynamic&gt;\n}\n\nclass Submission {\n  +players: List&lt;Player&gt;\n  +answers: List&lt;Answer&gt;\n  +toJson(): Map&lt;String, dynamic&gt;\n}\n\nQuiz *-- Question\nQuiz *-- Answer\nQuiz --&gt; Player\nQuestion --&gt; Answer\nSubmission *-- Player\nSubmission *-- Answer\n&quot;&#xa;}" id="ULJQJ59dZBgp9PxPeQpJ-1">
                    <mxCell style="shape=image;noLabel=1;verticalAlign=top;imageAspect=1;image=data:image/svg+xml,PHN2ZyBhcmlhLXJvbGVkZXNjcmlwdGlvbj0iY2xhc3MiIHJvbGU9ImdyYXBoaWNzLWRvY3VtZW50IGRvY3VtZW50IiB2aWV3Qm94PSIwIDAgNzI3LjM5NzQ2MDkzNzUgODEyIiBzdHlsZT0ibWF4LXdpZHRoOiA3MjcuMzk3NDYwOTM3NXB4OyIgY2xhc3M9ImNsYXNzRGlhZ3JhbSIgeG1sbnM9Imh0dHA6Ly93d3cudzMub3JnLzIwMDAvc3ZnIiB3aWR0aD0iMTAwJSIgaWQ9ImdlTWVybWFpZE91dHB1dC0xNzYxMjM0NTA0OTUwIj48c3R5bGU+I2dlTWVybWFpZE91dHB1dC0xNzYxMjM0NTA0OTUwe2ZvbnQtZmFtaWx5OiJ0cmVidWNoZXQgbXMiLHZlcmRhbmEsYXJpYWwsc2Fucy1zZXJpZjtmb250LXNpemU6MTZweDtmaWxsOiMwMDAwMDA7fSNnZU1lcm1haWRPdXRwdXQtMTc2MTIzNDUwNDk1MCAuZXJyb3ItaWNvbntmaWxsOiM1NTIyMjI7fSNnZU1lcm1haWRPdXRwdXQtMTc2MTIzNDUwNDk1MCAuZXJyb3ItdGV4dHtmaWxsOiM1NTIyMjI7c3Ryb2tlOiM1NTIyMjI7fSNnZU1lcm1haWRPdXRwdXQtMTc2MTIzNDUwNDk1MCAuZWRnZS10aGlja25lc3Mtbm9ybWFse3N0cm9rZS13aWR0aDoxcHg7fSNnZU1lcm1haWRPdXRwdXQtMTc2MTIzNDUwNDk1MCAuZWRnZS10aGlja25lc3MtdGhpY2t7c3Ryb2tlLXdpZHRoOjMuNXB4O30jZ2VNZXJtYWlkT3V0cHV0LTE3NjEyMzQ1MDQ5NTAgLmVkZ2UtcGF0dGVybi1zb2xpZHtzdHJva2UtZGFzaGFycmF5OjA7fSNnZU1lcm1haWRPdXRwdXQtMTc2MTIzNDUwNDk1MCAuZWRnZS10aGlja25lc3MtaW52aXNpYmxle3N0cm9rZS13aWR0aDowO2ZpbGw6bm9uZTt9I2dlTWVybWFpZE91dHB1dC0xNzYxMjM0NTA0OTUwIC5lZGdlLXBhdHRlcm4tZGFzaGVke3N0cm9rZS1kYXNoYXJyYXk6Mzt9I2dlTWVybWFpZE91dHB1dC0xNzYxMjM0NTA0OTUwIC5lZGdlLXBhdHRlcm4tZG90dGVke3N0cm9rZS1kYXNoYXJyYXk6Mjt9I2dlTWVybWFpZE91dHB1dC0xNzYxMjM0NTA0OTUwIC5tYXJrZXJ7ZmlsbDojNjY2O3N0cm9rZTojNjY2O30jZ2VNZXJtYWlkT3V0cHV0LTE3NjEyMzQ1MDQ5NTAgLm1hcmtlci5jcm9zc3tzdHJva2U6IzY2Njt9I2dlTWVybWFpZE91dHB1dC0xNzYxMjM0NTA0OTUwIHN2Z3tmb250LWZhbWlseToidHJlYnVjaGV0IG1zIix2ZXJkYW5hLGFyaWFsLHNhbnMtc2VyaWY7Zm9udC1zaXplOjE2cHg7fSNnZU1lcm1haWRPdXRwdXQtMTc2MTIzNDUwNDk1MCBwe21hcmdpbjowO30jZ2VNZXJtYWlkT3V0cHV0LTE3NjEyMzQ1MDQ5NTAgZy5jbGFzc0dyb3VwIHRleHR7ZmlsbDojOTk5O3N0cm9rZTpub25lO2ZvbnQtZmFtaWx5OiJ0cmVidWNoZXQgbXMiLHZlcmRhbmEsYXJpYWwsc2Fucy1zZXJpZjtmb250LXNpemU6MTBweDt9I2dlTWVybWFpZE91dHB1dC0xNzYxMjM0NTA0OTUwIGcuY2xhc3NHcm91cCB0ZXh0IC50aXRsZXtmb250LXdlaWdodDpib2xkZXI7fSNnZU1lcm1haWRPdXRwdXQtMTc2MTIzNDUwNDk1MCAubm9kZUxhYmVsLCNnZU1lcm1haWRPdXRwdXQtMTc2MTIzNDUwNDk1MCAuZWRnZUxhYmVse2NvbG9yOiMxMTExMTE7fSNnZU1lcm1haWRPdXRwdXQtMTc2MTIzNDUwNDk1MCAuZWRnZUxhYmVsIC5sYWJlbCByZWN0e2ZpbGw6I2VlZTt9I2dlTWVybWFpZE91dHB1dC0xNzYxMjM0NTA0OTUwIC5sYWJlbCB0ZXh0e2ZpbGw6IzExMTExMTt9I2dlTWVybWFpZE91dHB1dC0xNzYxMjM0NTA0OTUwIC5sYWJlbEJrZ3tiYWNrZ3JvdW5kOiNlZWU7fSNnZU1lcm1haWRPdXRwdXQtMTc2MTIzNDUwNDk1MCAuZWRnZUxhYmVsIC5sYWJlbCBzcGFue2JhY2tncm91bmQ6I2VlZTt9I2dlTWVybWFpZE91dHB1dC0xNzYxMjM0NTA0OTUwIC5jbGFzc1RpdGxle2ZvbnQtd2VpZ2h0OmJvbGRlcjt9I2dlTWVybWFpZE91dHB1dC0xNzYxMjM0NTA0OTUwIC5ub2RlIHJlY3QsI2dlTWVybWFpZE91dHB1dC0xNzYxMjM0NTA0OTUwIC5ub2RlIGNpcmNsZSwjZ2VNZXJtYWlkT3V0cHV0LTE3NjEyMzQ1MDQ5NTAgLm5vZGUgZWxsaXBzZSwjZ2VNZXJtYWlkT3V0cHV0LTE3NjEyMzQ1MDQ5NTAgLm5vZGUgcG9seWdvbiwjZ2VNZXJtYWlkT3V0cHV0LTE3NjEyMzQ1MDQ5NTAgLm5vZGUgcGF0aHtmaWxsOiNlZWU7c3Ryb2tlOiM5OTk7c3Ryb2tlLXdpZHRoOjFweDt9I2dlTWVybWFpZE91dHB1dC0xNzYxMjM0NTA0OTUwIC5kaXZpZGVye3N0cm9rZTojOTk5O3N0cm9rZS13aWR0aDoxO30jZ2VNZXJtYWlkT3V0cHV0LTE3NjEyMzQ1MDQ5NTAgZy5jbGlja2FibGV7Y3Vyc29yOnBvaW50ZXI7fSNnZU1lcm1haWRPdXRwdXQtMTc2MTIzNDUwNDk1MCBnLmNsYXNzR3JvdXAgcmVjdHtmaWxsOiNlZWU7c3Ryb2tlOiM5OTk7fSNnZU1lcm1haWRPdXRwdXQtMTc2MTIzNDUwNDk1MCBnLmNsYXNzR3JvdXAgbGluZXtzdHJva2U6Izk5OTtzdHJva2Utd2lkdGg6MTt9I2dlTWVybWFpZE91dHB1dC0xNzYxMjM0NTA0OTUwIC5jbGFzc0xhYmVsIC5ib3h7c3Ryb2tlOm5vbmU7c3Ryb2tlLXdpZHRoOjA7ZmlsbDojZWVlO29wYWNpdHk6MC41O30jZ2VNZXJtYWlkT3V0cHV0LTE3NjEyMzQ1MDQ5NTAgLmNsYXNzTGFiZWwgLmxhYmVse2ZpbGw6Izk5OTtmb250LXNpemU6MTBweDt9I2dlTWVybWFpZE91dHB1dC0xNzYxMjM0NTA0OTUwIC5yZWxhdGlvbntzdHJva2U6IzY2NjtzdHJva2Utd2lkdGg6MTtmaWxsOm5vbmU7fSNnZU1lcm1haWRPdXRwdXQtMTc2MTIzNDUwNDk1MCAuZGFzaGVkLWxpbmV7c3Ryb2tlLWRhc2hhcnJheTozO30jZ2VNZXJtYWlkT3V0cHV0LTE3NjEyMzQ1MDQ5NTAgLmRvdHRlZC1saW5le3N0cm9rZS1kYXNoYXJyYXk6MSAyO30jZ2VNZXJtYWlkT3V0cHV0LTE3NjEyMzQ1MDQ5NTAgI2NvbXBvc2l0aW9uU3RhcnQsI2dlTWVybWFpZE91dHB1dC0xNzYxMjM0NTA0OTUwIC5jb21wb3NpdGlvbntmaWxsOiM2NjYhaW1wb3J0YW50O3N0cm9rZTojNjY2IWltcG9ydGFudDtzdHJva2Utd2lkdGg6MTt9I2dlTWVybWFpZE91dHB1dC0xNzYxMjM0NTA0OTUwICNjb21wb3NpdGlvbkVuZCwjZ2VNZXJtYWlkT3V0cHV0LTE3NjEyMzQ1MDQ5NTAgLmNvbXBvc2l0aW9ue2ZpbGw6IzY2NiFpbXBvcnRhbnQ7c3Ryb2tlOiM2NjYhaW1wb3J0YW50O3N0cm9rZS13aWR0aDoxO30jZ2VNZXJtYWlkT3V0cHV0LTE3NjEyMzQ1MDQ5NTAgI2RlcGVuZGVuY3lTdGFydCwjZ2VNZXJtYWlkT3V0cHV0LTE3NjEyMzQ1MDQ5NTAgLmRlcGVuZGVuY3l7ZmlsbDojNjY2IWltcG9ydGFudDtzdHJva2U6IzY2NiFpbXBvcnRhbnQ7c3Ryb2tlLXdpZHRoOjE7fSNnZU1lcm1haWRPdXRwdXQtMTc2MTIzNDUwNDk1MCAjZGVwZW5kZW5jeVN0YXJ0LCNnZU1lcm1haWRPdXRwdXQtMTc2MTIzNDUwNDk1MCAuZGVwZW5kZW5jeXtmaWxsOiM2NjYhaW1wb3J0YW50O3N0cm9rZTojNjY2IWltcG9ydGFudDtzdHJva2Utd2lkdGg6MTt9I2dlTWVybWFpZE91dHB1dC0xNzYxMjM0NTA0OTUwICNleHRlbnNpb25TdGFydCwjZ2VNZXJtYWlkT3V0cHV0LTE3NjEyMzQ1MDQ5NTAgLmV4dGVuc2lvbntmaWxsOnRyYW5zcGFyZW50IWltcG9ydGFudDtzdHJva2U6IzY2NiFpbXBvcnRhbnQ7c3Ryb2tlLXdpZHRoOjE7fSNnZU1lcm1haWRPdXRwdXQtMTc2MTIzNDUwNDk1MCAjZXh0ZW5zaW9uRW5kLCNnZU1lcm1haWRPdXRwdXQtMTc2MTIzNDUwNDk1MCAuZXh0ZW5zaW9ue2ZpbGw6dHJhbnNwYXJlbnQhaW1wb3J0YW50O3N0cm9rZTojNjY2IWltcG9ydGFudDtzdHJva2Utd2lkdGg6MTt9I2dlTWVybWFpZE91dHB1dC0xNzYxMjM0NTA0OTUwICNhZ2dyZWdhdGlvblN0YXJ0LCNnZU1lcm1haWRPdXRwdXQtMTc2MTIzNDUwNDk1MCAuYWdncmVnYXRpb257ZmlsbDp0cmFuc3BhcmVudCFpbXBvcnRhbnQ7c3Ryb2tlOiM2NjYhaW1wb3J0YW50O3N0cm9rZS13aWR0aDoxO30jZ2VNZXJtYWlkT3V0cHV0LTE3NjEyMzQ1MDQ5NTAgI2FnZ3JlZ2F0aW9uRW5kLCNnZU1lcm1haWRPdXRwdXQtMTc2MTIzNDUwNDk1MCAuYWdncmVnYXRpb257ZmlsbDp0cmFuc3BhcmVudCFpbXBvcnRhbnQ7c3Ryb2tlOiM2NjYhaW1wb3J0YW50O3N0cm9rZS13aWR0aDoxO30jZ2VNZXJtYWlkT3V0cHV0LTE3NjEyMzQ1MDQ5NTAgI2xvbGxpcG9wU3RhcnQsI2dlTWVybWFpZE91dHB1dC0xNzYxMjM0NTA0OTUwIC5sb2xsaXBvcHtmaWxsOiNlZWUhaW1wb3J0YW50O3N0cm9rZTojNjY2IWltcG9ydGFudDtzdHJva2Utd2lkdGg6MTt9I2dlTWVybWFpZE91dHB1dC0xNzYxMjM0NTA0OTUwICNsb2xsaXBvcEVuZCwjZ2VNZXJtYWlkT3V0cHV0LTE3NjEyMzQ1MDQ5NTAgLmxvbGxpcG9we2ZpbGw6I2VlZSFpbXBvcnRhbnQ7c3Ryb2tlOiM2NjYhaW1wb3J0YW50O3N0cm9rZS13aWR0aDoxO30jZ2VNZXJtYWlkT3V0cHV0LTE3NjEyMzQ1MDQ5NTAgLmVkZ2VUZXJtaW5hbHN7Zm9udC1zaXplOjExcHg7bGluZS1oZWlnaHQ6aW5pdGlhbDt9I2dlTWVybWFpZE91dHB1dC0xNzYxMjM0NTA0OTUwIC5jbGFzc1RpdGxlVGV4dHt0ZXh0LWFuY2hvcjptaWRkbGU7Zm9udC1zaXplOjE4cHg7ZmlsbDojMDAwMDAwO30jZ2VNZXJtYWlkT3V0cHV0LTE3NjEyMzQ1MDQ5NTAgOnJvb3R7LS1tZXJtYWlkLWZvbnQtZmFtaWx5OiJ0cmVidWNoZXQgbXMiLHZlcmRhbmEsYXJpYWwsc2Fucy1zZXJpZjt9PC9zdHlsZT48Zz48ZGVmcz48bWFya2VyIG9yaWVudD0iYXV0byIgbWFya2VySGVpZ2h0PSIyNDAiIG1hcmtlcldpZHRoPSIxOTAiIHJlZlk9IjciIHJlZlg9IjE4IiBjbGFzcz0ibWFya2VyIGFnZ3JlZ2F0aW9uIGNsYXNzIiBpZD0iZ2VNZXJtYWlkT3V0cHV0LTE3NjEyMzQ1MDQ5NTBfY2xhc3MtYWdncmVnYXRpb25TdGFydCI+PHBhdGggZD0iTSAxOCw3IEw5LDEzIEwxLDcgTDksMSBaIj48L3BhdGg+PC9tYXJrZXI+PC9kZWZzPjxkZWZzPjxtYXJrZXIgb3JpZW50PSJhdXRvIiBtYXJrZXJIZWlnaHQ9IjI4IiBtYXJrZXJXaWR0aD0iMjAiIHJlZlk9IjciIHJlZlg9IjEiIGNsYXNzPSJtYXJrZXIgYWdncmVnYXRpb24gY2xhc3MiIGlkPSJnZU1lcm1haWRPdXRwdXQtMTc2MTIzNDUwNDk1MF9jbGFzcy1hZ2dyZWdhdGlvbkVuZCI+PHBhdGggZD0iTSAxOCw3IEw5LDEzIEwxLDcgTDksMSBaIj48L3BhdGg+PC9tYXJrZXI+PC9kZWZzPjxkZWZzPjxtYXJrZXIgb3JpZW50PSJhdXRvIiBtYXJrZXJIZWlnaHQ9IjI0MCIgbWFya2VyV2lkdGg9IjE5MCIgcmVmWT0iNyIgcmVmWD0iMTgiIGNsYXNzPSJtYXJrZXIgZXh0ZW5zaW9uIGNsYXNzIiBpZD0iZ2VNZXJtYWlkT3V0cHV0LTE3NjEyMzQ1MDQ5NTBfY2xhc3MtZXh0ZW5zaW9uU3RhcnQiPjxwYXRoIGQ9Ik0gMSw3IEwxOCwxMyBWIDEgWiI+PC9wYXRoPjwvbWFya2VyPjwvZGVmcz48ZGVmcz48bWFya2VyIG9yaWVudD0iYXV0byIgbWFya2VySGVpZ2h0PSIyOCIgbWFya2VyV2lkdGg9IjIwIiByZWZZPSI3IiByZWZYPSIxIiBjbGFzcz0ibWFya2VyIGV4dGVuc2lvbiBjbGFzcyIgaWQ9ImdlTWVybWFpZE91dHB1dC0xNzYxMjM0NTA0OTUwX2NsYXNzLWV4dGVuc2lvbkVuZCI+PHBhdGggZD0iTSAxLDEgViAxMyBMMTgsNyBaIj48L3BhdGg+PC9tYXJrZXI+PC9kZWZzPjxkZWZzPjxtYXJrZXIgb3JpZW50PSJhdXRvIiBtYXJrZXJIZWlnaHQ9IjI0MCIgbWFya2VyV2lkdGg9IjE5MCIgcmVmWT0iNyIgcmVmWD0iMTgiIGNsYXNzPSJtYXJrZXIgY29tcG9zaXRpb24gY2xhc3MiIGlkPSJnZU1lcm1haWRPdXRwdXQtMTc2MTIzNDUwNDk1MF9jbGFzcy1jb21wb3NpdGlvblN0YXJ0Ij48cGF0aCBkPSJNIDE4LDcgTDksMTMgTDEsNyBMOSwxIFoiPjwvcGF0aD48L21hcmtlcj48L2RlZnM+PGRlZnM+PG1hcmtlciBvcmllbnQ9ImF1dG8iIG1hcmtlckhlaWdodD0iMjgiIG1hcmtlcldpZHRoPSIyMCIgcmVmWT0iNyIgcmVmWD0iMSIgY2xhc3M9Im1hcmtlciBjb21wb3NpdGlvbiBjbGFzcyIgaWQ9ImdlTWVybWFpZE91dHB1dC0xNzYxMjM0NTA0OTUwX2NsYXNzLWNvbXBvc2l0aW9uRW5kIj48cGF0aCBkPSJNIDE4LDcgTDksMTMgTDEsNyBMOSwxIFoiPjwvcGF0aD48L21hcmtlcj48L2RlZnM+PGRlZnM+PG1hcmtlciBvcmllbnQ9ImF1dG8iIG1hcmtlckhlaWdodD0iMjQwIiBtYXJrZXJXaWR0aD0iMTkwIiByZWZZPSI3IiByZWZYPSI2IiBjbGFzcz0ibWFya2VyIGRlcGVuZGVuY3kgY2xhc3MiIGlkPSJnZU1lcm1haWRPdXRwdXQtMTc2MTIzNDUwNDk1MF9jbGFzcy1kZXBlbmRlbmN5U3RhcnQiPjxwYXRoIGQ9Ik0gNSw3IEw5LDEzIEwxLDcgTDksMSBaIj48L3BhdGg+PC9tYXJrZXI+PC9kZWZzPjxkZWZzPjxtYXJrZXIgb3JpZW50PSJhdXRvIiBtYXJrZXJIZWlnaHQ9IjI4IiBtYXJrZXJXaWR0aD0iMjAiIHJlZlk9IjciIHJlZlg9IjEzIiBjbGFzcz0ibWFya2VyIGRlcGVuZGVuY3kgY2xhc3MiIGlkPSJnZU1lcm1haWRPdXRwdXQtMTc2MTIzNDUwNDk1MF9jbGFzcy1kZXBlbmRlbmN5RW5kIj48cGF0aCBkPSJNIDE4LDcgTDksMTMgTDE0LDcgTDksMSBaIj48L3BhdGg+PC9tYXJrZXI+PC9kZWZzPjxkZWZzPjxtYXJrZXIgb3JpZW50PSJhdXRvIiBtYXJrZXJIZWlnaHQ9IjI0MCIgbWFya2VyV2lkdGg9IjE5MCIgcmVmWT0iNyIgcmVmWD0iMTMiIGNsYXNzPSJtYXJrZXIgbG9sbGlwb3AgY2xhc3MiIGlkPSJnZU1lcm1haWRPdXRwdXQtMTc2MTIzNDUwNDk1MF9jbGFzcy1sb2xsaXBvcFN0YXJ0Ij48Y2lyY2xlIHI9IjYiIGN5PSI3IiBjeD0iNyIgZmlsbD0idHJhbnNwYXJlbnQiIHN0cm9rZT0iYmxhY2siPjwvY2lyY2xlPjwvbWFya2VyPjwvZGVmcz48ZGVmcz48bWFya2VyIG9yaWVudD0iYXV0byIgbWFya2VySGVpZ2h0PSIyNDAiIG1hcmtlcldpZHRoPSIxOTAiIHJlZlk9IjciIHJlZlg9IjEiIGNsYXNzPSJtYXJrZXIgbG9sbGlwb3AgY2xhc3MiIGlkPSJnZU1lcm1haWRPdXRwdXQtMTc2MTIzNDUwNDk1MF9jbGFzcy1sb2xsaXBvcEVuZCI+PGNpcmNsZSByPSI2IiBjeT0iNyIgY3g9IjciIGZpbGw9InRyYW5zcGFyZW50IiBzdHJva2U9ImJsYWNrIj48L2NpcmNsZT48L21hcmtlcj48L2RlZnM+PGcgY2xhc3M9InJvb3QiPjxnIGNsYXNzPSJjbHVzdGVycyI+PC9nPjxnIGNsYXNzPSJlZGdlUGF0aHMiPjxwYXRoIG1hcmtlci1zdGFydD0idXJsKCNnZU1lcm1haWRPdXRwdXQtMTc2MTIzNDUwNDk1MF9jbGFzcy1jb21wb3NpdGlvblN0YXJ0KSIgc3R5bGU9IjsiIGNsYXNzPSJlZGdlLXRoaWNrbmVzcy1ub3JtYWwgZWRnZS1wYXR0ZXJuLXNvbGlkIHJlbGF0aW9uIiBpZD0iaWRfUXVpel9RdWVzdGlvbl8xIiBkPSJNMjE3Ljg4LDMxMi43MTVMMjE4LjQzMSwzMTQuMDk2QzIxOC45ODMsMzE1LjQ3NywyMjAuMDg3LDMxOC4yMzgsMjIwLjYzOCwzMjMuNzg2QzIyMS4xOSwzMjkuMzMzLDIyMS4xOSwzMzcuNjY3LDIyMS4xOSwzNDEuODMzTDIyMS4xOSwzNDYiPjwvcGF0aD48cGF0aCBtYXJrZXItc3RhcnQ9InVybCgjZ2VNZXJtYWlkT3V0cHV0LTE3NjEyMzQ1MDQ5NTBfY2xhc3MtY29tcG9zaXRpb25TdGFydCkiIHN0eWxlPSI7IiBjbGFzcz0iZWRnZS10aGlja25lc3Mtbm9ybWFsIGVkZ2UtcGF0dGVybi1zb2xpZCByZWxhdGlvbiIgaWQ9ImlkX1F1aXpfQW5zd2VyXzIiIGQ9Ik04OS40NSwzMTIuNzE1TDg4Ljg5OSwzMTQuMDk2Qzg4LjM0NywzMTUuNDc3LDg3LjI0MywzMTguMjM4LDg2LjY5MiwzNDEuNzg2Qzg2LjE0LDM2NS4zMzMsODYuMTQsNDA5LjY2Nyw4Ni4xNCw0NTRDODYuMTQsNDk4LjMzMyw4Ni4xNCw1NDIuNjY3LDkwLjc5LDU2OUM5NS40NDEsNTk1LjMzMywxMDQuNzQyLDYwMy42NjcsMTA5LjM5Miw2MDcuODMzTDExNC4wNDMsNjEyIj48L3BhdGg+PHBhdGggbWFya2VyLWVuZD0idXJsKCNnZU1lcm1haWRPdXRwdXQtMTc2MTIzNDUwNDk1MF9jbGFzcy1kZXBlbmRlbmN5RW5kKSIgc3R5bGU9IjsiIGNsYXNzPSJlZGdlLXRoaWNrbmVzcy1ub3JtYWwgZWRnZS1wYXR0ZXJuLXNvbGlkIHJlbGF0aW9uIiBpZD0iaWRfUXVpel9QbGF5ZXJfMyIgZD0iTTI5OS4zMywyMDguMDU3TDM0OC4yNDUsMjI2Ljg4QzM5Ny4xNTksMjQ1LjcwNCw0OTQuOTg4LDI4My4zNTIsNTQzLjkwMywzMjQuMzQzQzU5Mi44MTgsMzY1LjMzMyw1OTIuODE4LDQwOS42NjcsNTkyLjgxOCw0NTRDNTkyLjgxOCw0OTguMzMzLDU5Mi44MTgsNTQyLjY2Nyw1OTMuMDgsNTY4LjAwM0M1OTMuMzQyLDU5My4zNCw1OTMuODY1LDU5OS42OCw1OTQuMTI3LDYwMi44NUw1OTQuMzg5LDYwNi4wMiI+PC9wYXRoPjxwYXRoIG1hcmtlci1lbmQ9InVybCgjZ2VNZXJtYWlkT3V0cHV0LTE3NjEyMzQ1MDQ5NTBfY2xhc3MtZGVwZW5kZW5jeUVuZCkiIHN0eWxlPSI7IiBjbGFzcz0iZWRnZS10aGlja25lc3Mtbm9ybWFsIGVkZ2UtcGF0dGVybi1zb2xpZCByZWxhdGlvbiIgaWQ9ImlkX1F1ZXN0aW9uX0Fuc3dlcl80IiBkPSJNMjIxLjE5LDU2MkwyMjEuMTksNTY2LjE2N0MyMjEuMTksNTcwLjMzMywyMjEuMTksNTc4LjY2NywyMjEuMTksNTg2QzIyMS4xOSw1OTMuMzMzLDIyMS4xOSw1OTkuNjY3LDIyMS4xOSw2MDIuODMzTDIyMS4xOSw2MDYiPjwvcGF0aD48cGF0aCBtYXJrZXItc3RhcnQ9InVybCgjZ2VNZXJtYWlkT3V0cHV0LTE3NjEyMzQ1MDQ5NTBfY2xhc3MtY29tcG9zaXRpb25TdGFydCkiIHN0eWxlPSI7IiBjbGFzcz0iZWRnZS10aGlja25lc3Mtbm9ybWFsIGVkZ2UtcGF0dGVybi1zb2xpZCByZWxhdGlvbiIgaWQ9ImlkX1N1Ym1pc3Npb25fUGxheWVyXzUiIGQ9Ik01NzEuMjE3LDU0OS42ODlMNTc4LjE1MSw1NTUuOTA3QzU4NS4wODQsNTYyLjEyNiw1OTguOTUxLDU3NC41NjMsNjA1LjU0LDU4NC45NDhDNjEyLjEyOSw1OTUuMzMzLDYxMS40NCw2MDMuNjY3LDYxMS4wOTYsNjA3LjgzM0w2MTAuNzUxLDYxMiI+PC9wYXRoPjxwYXRoIG1hcmtlci1zdGFydD0idXJsKCNnZU1lcm1haWRPdXRwdXQtMTc2MTIzNDUwNDk1MF9jbGFzcy1jb21wb3NpdGlvblN0YXJ0KSIgc3R5bGU9IjsiIGNsYXNzPSJlZGdlLXRoaWNrbmVzcy1ub3JtYWwgZWRnZS1wYXR0ZXJuLXNvbGlkIHJlbGF0aW9uIiBpZD0iaWRfU3VibWlzc2lvbl9BbnN3ZXJfNiIgZD0iTTQ2NC41MjksNTU2TDQ2NC41MjksNTYxLjE2N0M0NjQuNTI5LDU2Ni4zMzMsNDY0LjUyOSw1NzYuNjY3LDQ0NC43MDIsNTkxLjY5MkM0MjQuODc2LDYwNi43MTcsMzg1LjIyMyw2MjYuNDM1LDM2NS4zOTYsNjM2LjI5M0wzNDUuNTcsNjQ2LjE1MiI+PC9wYXRoPjwvZz48ZyBjbGFzcz0iZWRnZUxhYmVscyI+PGc+PHJlY3Qgc3R5bGU9InN0cm9rZTogbm9uZSIgY2xhc3M9ImJhY2tncm91bmQiPjwvcmVjdD48L2c+PGc+PHJlY3Qgc3R5bGU9InN0cm9rZTogbm9uZSIgY2xhc3M9ImJhY2tncm91bmQiPjwvcmVjdD48L2c+PGc+PHJlY3Qgc3R5bGU9InN0cm9rZTogbm9uZSIgY2xhc3M9ImJhY2tncm91bmQiPjwvcmVjdD48L2c+PGc+PHJlY3Qgc3R5bGU9InN0cm9rZTogbm9uZSIgY2xhc3M9ImJhY2tncm91bmQiPjwvcmVjdD48L2c+PGc+PHJlY3Qgc3R5bGU9InN0cm9rZTogbm9uZSIgY2xhc3M9ImJhY2tncm91bmQiPjwvcmVjdD48L2c+PGc+PHJlY3Qgc3R5bGU9InN0cm9rZTogbm9uZSIgY2xhc3M9ImJhY2tncm91bmQiPjwvcmVjdD48L2c+PGcgY2xhc3M9ImVkZ2VMYWJlbCI+PGcgdHJhbnNmb3JtPSJ0cmFuc2xhdGUoMCwgMCkiIGNsYXNzPSJsYWJlbCI+PHRleHQgeT0iLTEwLjEiPjx0c3BhbiBkeT0iMS4xZW0iIHk9Ii0wLjFlbSIgeD0iMCIgY2xhc3M9InRleHQtb3V0ZXItdHNwYW4iPjwvdHNwYW4+PC90ZXh0PjwvZz48L2c+PGcgY2xhc3M9ImVkZ2VMYWJlbCI+PGcgdHJhbnNmb3JtPSJ0cmFuc2xhdGUoMCwgMCkiIGNsYXNzPSJsYWJlbCI+PHRleHQgeT0iLTEwLjEiPjx0c3BhbiBkeT0iMS4xZW0iIHk9Ii0wLjFlbSIgeD0iMCIgY2xhc3M9InRleHQtb3V0ZXItdHNwYW4iPjwvdHNwYW4+PC90ZXh0PjwvZz48L2c+PGcgY2xhc3M9ImVkZ2VMYWJlbCI+PGcgdHJhbnNmb3JtPSJ0cmFuc2xhdGUoMCwgMCkiIGNsYXNzPSJsYWJlbCI+PHRleHQgeT0iLTEwLjEiPjx0c3BhbiBkeT0iMS4xZW0iIHk9Ii0wLjFlbSIgeD0iMCIgY2xhc3M9InRleHQtb3V0ZXItdHNwYW4iPjwvdHNwYW4+PC90ZXh0PjwvZz48L2c+PGcgY2xhc3M9ImVkZ2VMYWJlbCI+PGcgdHJhbnNmb3JtPSJ0cmFuc2xhdGUoMCwgMCkiIGNsYXNzPSJsYWJlbCI+PHRleHQgeT0iLTEwLjEiPjx0c3BhbiBkeT0iMS4xZW0iIHk9Ii0wLjFlbSIgeD0iMCIgY2xhc3M9InRleHQtb3V0ZXItdHNwYW4iPjwvdHNwYW4+PC90ZXh0PjwvZz48L2c+PGcgY2xhc3M9ImVkZ2VMYWJlbCI+PGcgdHJhbnNmb3JtPSJ0cmFuc2xhdGUoMCwgMCkiIGNsYXNzPSJsYWJlbCI+PHRleHQgeT0iLTEwLjEiPjx0c3BhbiBkeT0iMS4xZW0iIHk9Ii0wLjFlbSIgeD0iMCIgY2xhc3M9InRleHQtb3V0ZXItdHNwYW4iPjwvdHNwYW4+PC90ZXh0PjwvZz48L2c+PGcgY2xhc3M9ImVkZ2VMYWJlbCI+PGcgdHJhbnNmb3JtPSJ0cmFuc2xhdGUoMCwgMCkiIGNsYXNzPSJsYWJlbCI+PHRleHQgeT0iLTEwLjEiPjx0c3BhbiBkeT0iMS4xZW0iIHk9Ii0wLjFlbSIgeD0iMCIgY2xhc3M9InRleHQtb3V0ZXItdHNwYW4iPjwvdHNwYW4+PC90ZXh0PjwvZz48L2c+PC9nPjxnIGNsYXNzPSJub2RlcyI+PGcgdHJhbnNmb3JtPSJ0cmFuc2xhdGUoMTUzLjY2NTAwODU0NDkyMTg4LCAxNTIpIiBpZD0iY2xhc3NJZC1RdWl6LTAiIGNsYXNzPSJub2RlIGRlZmF1bHQiPjxnIGNsYXNzPSJiYXNpYyBsYWJlbC1jb250YWluZXIiPjxwYXRoIHN0eWxlPSIiIGZpbGw9IiNlZWUiIHN0cm9rZS13aWR0aD0iMCIgc3Ryb2tlPSJub25lIiBkPSJNLTE0NS42NjUwMDg1NDQ5MjE4OCAtMTQ0IEwxNDUuNjY1MDA4NTQ0OTIxODggLTE0NCBMMTQ1LjY2NTAwODU0NDkyMTg4IDE0NCBMLTE0NS42NjUwMDg1NDQ5MjE4OCAxNDQiPjwvcGF0aD48cGF0aCBzdHlsZT0iIiBmaWxsPSJub25lIiBzdHJva2Utd2lkdGg9IjEuMyIgc3Ryb2tlPSIjOTk5IiBkPSJNLTE0NS42NjUwMDg1NDQ5MjE4OCAtMTQ0IEMtNjIuNTI5MDQ4NzAxOTEyMDQ2IC0xNDQsIDIwLjYwNjkxMTE0MTA5Nzc4MyAtMTQ0LCAxNDUuNjY1MDA4NTQ0OTIxODggLTE0NCBNLTE0NS42NjUwMDg1NDQ5MjE4OCAtMTQ0IEMtNTQuNTg4MTA0NzE1NDAyMzY2IC0xNDQsIDM2LjQ4ODc5OTExNDExNzE0IC0xNDQsIDE0NS42NjUwMDg1NDQ5MjE4OCAtMTQ0IE0xNDUuNjY1MDA4NTQ0OTIxODggLTE0NCBDMTQ1LjY2NTAwODU0NDkyMTg4IC0zMC41OTAzNDEzMjM2OTMxMjQsIDE0NS42NjUwMDg1NDQ5MjE4OCA4Mi44MTkzMTczNTI2MTM3NSwgMTQ1LjY2NTAwODU0NDkyMTg4IDE0NCBNMTQ1LjY2NTAwODU0NDkyMTg4IC0xNDQgQzE0NS42NjUwMDg1NDQ5MjE4OCAtMzQuMDg5NDMyNTk3NDk1ODcsIDE0NS42NjUwMDg1NDQ5MjE4OCA3NS44MjExMzQ4MDUwMDgyNiwgMTQ1LjY2NTAwODU0NDkyMTg4IDE0NCBNMTQ1LjY2NTAwODU0NDkyMTg4IDE0NCBDNjguMjc3NTg4NDc0MjA1MTYgMTQ0LCAtOS4xMDk4MzE1OTY1MTE1NTUgMTQ0LCAtMTQ1LjY2NTAwODU0NDkyMTg4IDE0NCBNMTQ1LjY2NTAwODU0NDkyMTg4IDE0NCBDMzIuNTg4ODI1OTUwNjk1MjEgMTQ0LCAtODAuNDg3MzU2NjQzNTMxNDYgMTQ0LCAtMTQ1LjY2NTAwODU0NDkyMTg4IDE0NCBNLTE0NS42NjUwMDg1NDQ5MjE4OCAxNDQgQy0xNDUuNjY1MDA4NTQ0OTIxODggMzQuODc2MzY2MDY5MTgwNjIsIC0xNDUuNjY1MDA4NTQ0OTIxODggLTc0LjI0NzI2Nzg2MTYzODc2LCAtMTQ1LjY2NTAwODU0NDkyMTg4IC0xNDQgTS0xNDUuNjY1MDA4NTQ0OTIxODggMTQ0IEMtMTQ1LjY2NTAwODU0NDkyMTg4IDg0Ljc2OTY5NzY3OTY4NTYzLCAtMTQ1LjY2NTAwODU0NDkyMTg4IDI1LjUzOTM5NTM1OTM3MTI3LCAtMTQ1LjY2NTAwODU0NDkyMTg4IC0xNDQiPjwvcGF0aD48L2c+PGcgdHJhbnNmb3JtPSJ0cmFuc2xhdGUoMCwgLTEyMCkiIGNsYXNzPSJhbm5vdGF0aW9uLWdyb3VwIHRleHQiPjwvZz48ZyB0cmFuc2Zvcm09InRyYW5zbGF0ZSgtMTcuMDEwMDAwMjI4ODgxODM2LCAtMTIwKSIgY2xhc3M9ImxhYmVsLWdyb3VwIHRleHQiPjxnIHRyYW5zZm9ybT0idHJhbnNsYXRlKDAsLTEyKSIgc3R5bGU9ImZvbnQtd2VpZ2h0OiBib2xkZXIiIGNsYXNzPSJsYWJlbCI+PGZvcmVpZ25PYmplY3QgaGVpZ2h0PSIyNCIgd2lkdGg9IjM0LjAyMDAwMDQ1Nzc2MzY3Ij48ZGl2IHN0eWxlPSJkaXNwbGF5OiB0YWJsZS1jZWxsOyB3aGl0ZS1zcGFjZTogbm93cmFwOyBsaW5lLWhlaWdodDogMS41OyBtYXgtd2lkdGg6IDgzcHg7IHRleHQtYWxpZ246IGNlbnRlcjsiIHhtbG5zPSJodHRwOi8vd3d3LnczLm9yZy8xOTk5L3hodG1sIj48c3BhbiBzdHlsZT0iIiBjbGFzcz0ibm9kZUxhYmVsIG1hcmtkb3duLW5vZGUtbGFiZWwiPjxwPlF1aXo8L3A+PC9zcGFuPjwvZGl2PjwvZm9yZWlnbk9iamVjdD48L2c+PC9nPjxnIHRyYW5zZm9ybT0idHJhbnNsYXRlKC0xMzMuNjY1MDA4NTQ0OTIxODgsIC03MikiIGNsYXNzPSJtZW1iZXJzLWdyb3VwIHRleHQiPjxnIHRyYW5zZm9ybT0idHJhbnNsYXRlKDAsLTEyKSIgc3R5bGU9IiIgY2xhc3M9ImxhYmVsIj48Zm9yZWlnbk9iamVjdCBoZWlnaHQ9IjI0IiB3aWR0aD0iMTEyLjExMDAwODIzOTc0NjEiPjxkaXYgc3R5bGU9ImRpc3BsYXk6IHRhYmxlLWNlbGw7IHdoaXRlLXNwYWNlOiBub3dyYXA7IGxpbmUtaGVpZ2h0OiAxLjU7IG1heC13aWR0aDogMTY4cHg7IHRleHQtYWxpZ246IGNlbnRlcjsiIHhtbG5zPSJodHRwOi8vd3d3LnczLm9yZy8xOTk5L3hodG1sIj48c3BhbiBzdHlsZT0iIiBjbGFzcz0ibm9kZUxhYmVsIG1hcmtkb3duLW5vZGUtbGFiZWwiPjxwPitxdWVzdGlvbnM6IExpc3Q8L3A+PC9zcGFuPjwvZGl2PjwvZm9yZWlnbk9iamVjdD48L2c+PGcgdHJhbnNmb3JtPSJ0cmFuc2xhdGUoMCwxMikiIHN0eWxlPSIiIGNsYXNzPSJsYWJlbCI+PGZvcmVpZ25PYmplY3QgaGVpZ2h0PSIyNCIgd2lkdGg9IjEwMS40OTAwMDU0OTMxNjQwNiI+PGRpdiBzdHlsZT0iZGlzcGxheTogdGFibGUtY2VsbDsgd2hpdGUtc3BhY2U6IG5vd3JhcDsgbGluZS1oZWlnaHQ6IDEuNTsgbWF4LXdpZHRoOiAxNTZweDsgdGV4dC1hbGlnbjogY2VudGVyOyIgeG1sbnM9Imh0dHA6Ly93d3cudzMub3JnLzE5OTkveGh0bWwiPjxzcGFuIHN0eWxlPSIiIGNsYXNzPSJub2RlTGFiZWwgbWFya2Rvd24tbm9kZS1sYWJlbCI+PHA+K2Fuc3dlcnM6IExpc3Q8L3A+PC9zcGFuPjwvZGl2PjwvZm9yZWlnbk9iamVjdD48L2c+PGcgdHJhbnNmb3JtPSJ0cmFuc2xhdGUoMCwzNikiIHN0eWxlPSIiIGNsYXNzPSJsYWJlbCI+PGZvcmVpZ25PYmplY3QgaGVpZ2h0PSIyNCIgd2lkdGg9Ijk5LjA3NTAwNDU3NzYzNjcyIj48ZGl2IHN0eWxlPSJkaXNwbGF5OiB0YWJsZS1jZWxsOyB3aGl0ZS1zcGFjZTogbm93cmFwOyBsaW5lLWhlaWdodDogMS41OyBtYXgtd2lkdGg6IDE1OHB4OyB0ZXh0LWFsaWduOiBjZW50ZXI7IiB4bWxucz0iaHR0cDovL3d3dy53My5vcmcvMTk5OS94aHRtbCI+PHNwYW4gc3R5bGU9IiIgY2xhc3M9Im5vZGVMYWJlbCBtYXJrZG93bi1ub2RlLWxhYmVsIj48cD4rcGxheWVyczogTWFwPC9wPjwvc3Bhbj48L2Rpdj48L2ZvcmVpZ25PYmplY3Q+PC9nPjwvZz48ZyB0cmFuc2Zvcm09InRyYW5zbGF0ZSgtMTMzLjY2NTAwODU0NDkyMTg4LCAyNCkiIGNsYXNzPSJtZXRob2RzLWdyb3VwIHRleHQiPjxnIHRyYW5zZm9ybT0idHJhbnNsYXRlKDAsLTEyKSIgc3R5bGU9IiIgY2xhc3M9ImxhYmVsIj48Zm9yZWlnbk9iamVjdCBoZWlnaHQ9IjI0IiB3aWR0aD0iMjA0LjM5MDAxNDY0ODQzNzUiPjxkaXYgc3R5bGU9ImRpc3BsYXk6IHRhYmxlLWNlbGw7IHdoaXRlLXNwYWNlOiBub3dyYXA7IGxpbmUtaGVpZ2h0OiAxLjU7IG1heC13aWR0aDogMjU2cHg7IHRleHQtYWxpZ246IGNlbnRlcjsiIHhtbG5zPSJodHRwOi8vd3d3LnczLm9yZy8xOTk5L3hodG1sIj48c3BhbiBzdHlsZT0iIiBjbGFzcz0ibm9kZUxhYmVsIG1hcmtkb3duLW5vZGUtbGFiZWwiPjxwPithZGRBbnN3ZXIoYW5zd2VyKSA6IDogdm9pZDwvcD48L3NwYW4+PC9kaXY+PC9mb3JlaWduT2JqZWN0PjwvZz48ZyB0cmFuc2Zvcm09InRyYW5zbGF0ZSgwLDEyKSIgc3R5bGU9IiIgY2xhc3M9ImxhYmVsIj48Zm9yZWlnbk9iamVjdCBoZWlnaHQ9IjI0IiB3aWR0aD0iMTkyLjE4MDAwNzkzNDU3MDMiPjxkaXYgc3R5bGU9ImRpc3BsYXk6IHRhYmxlLWNlbGw7IHdoaXRlLXNwYWNlOiBub3dyYXA7IGxpbmUtaGVpZ2h0OiAxLjU7IG1heC13aWR0aDogMjQxcHg7IHRleHQtYWxpZ246IGNlbnRlcjsiIHhtbG5zPSJodHRwOi8vd3d3LnczLm9yZy8xOTk5L3hodG1sIj48c3BhbiBzdHlsZT0iIiBjbGFzcz0ibm9kZUxhYmVsIG1hcmtkb3duLW5vZGUtbGFiZWwiPjxwPithZGRQbGF5ZXIocGxheWVyKSA6IDogdm9pZDwvcD48L3NwYW4+PC9kaXY+PC9mb3JlaWduT2JqZWN0PjwvZz48ZyB0cmFuc2Zvcm09InRyYW5zbGF0ZSgwLDM2KSIgc3R5bGU9IiIgY2xhc3M9ImxhYmVsIj48Zm9yZWlnbk9iamVjdCBoZWlnaHQ9IjI0IiB3aWR0aD0iMjUwLjMyMDAwNzMyNDIxODc1Ij48ZGl2IHN0eWxlPSJkaXNwbGF5OiB0YWJsZS1jZWxsOyB3aGl0ZS1zcGFjZTogbm93cmFwOyBsaW5lLWhlaWdodDogMS41OyBtYXgtd2lkdGg6IDMwMnB4OyB0ZXh0LWFsaWduOiBjZW50ZXI7IiB4bWxucz0iaHR0cDovL3d3dy53My5vcmcvMTk5OS94aHRtbCI+PHNwYW4gc3R5bGU9IiIgY2xhc3M9Im5vZGVMYWJlbCBtYXJrZG93bi1ub2RlLWxhYmVsIj48cD4rZ2V0U2NvcmVJblBlcmNlbnRhZ2UoKSA6IDogZG91YmxlPC9wPjwvc3Bhbj48L2Rpdj48L2ZvcmVpZ25PYmplY3Q+PC9nPjxnIHRyYW5zZm9ybT0idHJhbnNsYXRlKDAsNjApIiBzdHlsZT0iIiBjbGFzcz0ibGFiZWwiPjxmb3JlaWduT2JqZWN0IGhlaWdodD0iMjQiIHdpZHRoPSIxMjUuNDYwMDA2NzEzODY3MTkiPjxkaXYgc3R5bGU9ImRpc3BsYXk6IHRhYmxlLWNlbGw7IHdoaXRlLXNwYWNlOiBub3dyYXA7IGxpbmUtaGVpZ2h0OiAxLjU7IG1heC13aWR0aDogMTc2cHg7IHRleHQtYWxpZ246IGNlbnRlcjsiIHhtbG5zPSJodHRwOi8vd3d3LnczLm9yZy8xOTk5L3hodG1sIj48c3BhbiBzdHlsZT0iIiBjbGFzcz0ibm9kZUxhYmVsIG1hcmtkb3duLW5vZGUtbGFiZWwiPjxwPitnZXRQb2ludCgpIDogOiBpbnQ8L3A+PC9zcGFuPjwvZGl2PjwvZm9yZWlnbk9iamVjdD48L2c+PGcgdHJhbnNmb3JtPSJ0cmFuc2xhdGUoMCw4NCkiIHN0eWxlPSIiIGNsYXNzPSJsYWJlbCI+PGZvcmVpZ25PYmplY3QgaGVpZ2h0PSIyNCIgd2lkdGg9IjE5MC41NjAwMTI4MTczODI4Ij48ZGl2IHN0eWxlPSJkaXNwbGF5OiB0YWJsZS1jZWxsOyB3aGl0ZS1zcGFjZTogbm93cmFwOyBsaW5lLWhlaWdodDogMS41OyBtYXgtd2lkdGg6IDI0MXB4OyB0ZXh0LWFsaWduOiBjZW50ZXI7IiB4bWxucz0iaHR0cDovL3d3dy53My5vcmcvMTk5OS94aHRtbCI+PHNwYW4gc3R5bGU9IiIgY2xhc3M9Im5vZGVMYWJlbCBtYXJrZG93bi1ub2RlLWxhYmVsIj48cD4rZGlzcGxheUFsbFNjb3JlcygpIDogOiB2b2lkPC9wPjwvc3Bhbj48L2Rpdj48L2ZvcmVpZ25PYmplY3Q+PC9nPjwvZz48ZyBzdHlsZT0iIiBjbGFzcz0iZGl2aWRlciI+PHBhdGggc3R5bGU9IiIgZmlsbD0ibm9uZSIgc3Ryb2tlLXdpZHRoPSIxLjMiIHN0cm9rZT0iIzk5OSIgZD0iTS0xNDUuNjY1MDA4NTQ0OTIxODggLTk2IEMtODAuNDAwMjQ3NDI2NzAyMTEgLTk2LCAtMTUuMTM1NDg2MzA4NDgyMzQyIC05NiwgMTQ1LjY2NTAwODU0NDkyMTg4IC05NiBNLTE0NS42NjUwMDg1NDQ5MjE4OCAtOTYgQy02OS42MDY5OTIxOTM3NjQgLTk2LCA2LjQ1MTAyNDE1NzM5Mzg3NCAtOTYsIDE0NS42NjUwMDg1NDQ5MjE4OCAtOTYiPjwvcGF0aD48L2c+PGcgc3R5bGU9IiIgY2xhc3M9ImRpdmlkZXIiPjxwYXRoIHN0eWxlPSIiIGZpbGw9Im5vbmUiIHN0cm9rZS13aWR0aD0iMS4zIiBzdHJva2U9IiM5OTkiIGQ9Ik0tMTQ1LjY2NTAwODU0NDkyMTg4IDAgQy03Mi4xMjcwMTE3MzEzMzk3MyAwLCAxLjQxMDk4NTA4MjI0MjQwNSAwLCAxNDUuNjY1MDA4NTQ0OTIxODggMCBNLTE0NS42NjUwMDg1NDQ5MjE4OCAwIEMtNTYuNTgwNDM2MTg4NjgyIDAsIDMyLjUwNDEzNjE2NzU1Nzg3NCAwLCAxNDUuNjY1MDA4NTQ0OTIxODggMCI+PC9wYXRoPjwvZz48L2c+PGcgdHJhbnNmb3JtPSJ0cmFuc2xhdGUoMjIxLjE5MDAxMDA3MDgwMDc4LCA0NTQpIiBpZD0iY2xhc3NJZC1RdWVzdGlvbi0xIiBjbGFzcz0ibm9kZSBkZWZhdWx0Ij48ZyBjbGFzcz0iYmFzaWMgbGFiZWwtY29udGFpbmVyIj48cGF0aCBzdHlsZT0iIiBmaWxsPSIjZWVlIiBzdHJva2Utd2lkdGg9IjAiIHN0cm9rZT0ibm9uZSIgZD0iTS0xMDAuMDUwMDAzMDUxNzU3ODEgLTEwOCBMMTAwLjA1MDAwMzA1MTc1NzgxIC0xMDggTDEwMC4wNTAwMDMwNTE3NTc4MSAxMDggTC0xMDAuMDUwMDAzMDUxNzU3ODEgMTA4Ij48L3BhdGg+PHBhdGggc3R5bGU9IiIgZmlsbD0ibm9uZSIgc3Ryb2tlLXdpZHRoPSIxLjMiIHN0cm9rZT0iIzk5OSIgZD0iTS0xMDAuMDUwMDAzMDUxNzU3ODEgLTEwOCBDLTQyLjAzNzk0MDkzMjAwNDU2IC0xMDgsIDE1Ljk3NDEyMTE4Nzc0ODY5MyAtMTA4LCAxMDAuMDUwMDAzMDUxNzU3ODEgLTEwOCBNLTEwMC4wNTAwMDMwNTE3NTc4MSAtMTA4IEMtNDIuNTIyMTYzMzI0NTk0MTkgLTEwOCwgMTUuMDA1Njc2NDAyNTY5NDM1IC0xMDgsIDEwMC4wNTAwMDMwNTE3NTc4MSAtMTA4IE0xMDAuMDUwMDAzMDUxNzU3ODEgLTEwOCBDMTAwLjA1MDAwMzA1MTc1NzgxIC0zMC42NDY0MTA4ODcyMzE2NTMsIDEwMC4wNTAwMDMwNTE3NTc4MSA0Ni43MDcxNzgyMjU1MzY2OTQsIDEwMC4wNTAwMDMwNTE3NTc4MSAxMDggTTEwMC4wNTAwMDMwNTE3NTc4MSAtMTA4IEMxMDAuMDUwMDAzMDUxNzU3ODEgLTM1LjkyNzc2NjYxOTY0MDIxLCAxMDAuMDUwMDAzMDUxNzU3ODEgMzYuMTQ0NDY2NzYwNzE5NTgsIDEwMC4wNTAwMDMwNTE3NTc4MSAxMDggTTEwMC4wNTAwMDMwNTE3NTc4MSAxMDggQzI3LjU3MjY1NDQ2OTUwMjU1MiAxMDgsIC00NC45MDQ2OTQxMTI3NTI3MSAxMDgsIC0xMDAuMDUwMDAzMDUxNzU3ODEgMTA4IE0xMDAuMDUwMDAzMDUxNzU3ODEgMTA4IEM0MS44OTAwMDgwMTc2NTM1MiAxMDgsIC0xNi4yNjk5ODcwMTY0NTA3NyAxMDgsIC0xMDAuMDUwMDAzMDUxNzU3ODEgMTA4IE0tMTAwLjA1MDAwMzA1MTc1NzgxIDEwOCBDLTEwMC4wNTAwMDMwNTE3NTc4MSA1MC42MDY5NzQwMTcwNTM0NiwgLTEwMC4wNTAwMDMwNTE3NTc4MSAtNi43ODYwNTE5NjU4OTMwOCwgLTEwMC4wNTAwMDMwNTE3NTc4MSAtMTA4IE0tMTAwLjA1MDAwMzA1MTc1NzgxIDEwOCBDLTEwMC4wNTAwMDMwNTE3NTc4MSAyMy41Mzk1OTg5Njg2MjA1MjQsIC0xMDAuMDUwMDAzMDUxNzU3ODEgLTYwLjkyMDgwMjA2Mjc1ODk1LCAtMTAwLjA1MDAwMzA1MTc1NzgxIC0xMDgiPjwvcGF0aD48L2c+PGcgdHJhbnNmb3JtPSJ0cmFuc2xhdGUoMCwgLTg0KSIgY2xhc3M9ImFubm90YXRpb24tZ3JvdXAgdGV4dCI+PC9nPjxnIHRyYW5zZm9ybT0idHJhbnNsYXRlKC0zMy4yNDAwMDE2Nzg0NjY4LCAtODQpIiBjbGFzcz0ibGFiZWwtZ3JvdXAgdGV4dCI+PGcgdHJhbnNmb3JtPSJ0cmFuc2xhdGUoMCwtMTIpIiBzdHlsZT0iZm9udC13ZWlnaHQ6IGJvbGRlciIgY2xhc3M9ImxhYmVsIj48Zm9yZWlnbk9iamVjdCBoZWlnaHQ9IjI0IiB3aWR0aD0iNjYuNDgwMDAzMzU2OTMzNiI+PGRpdiBzdHlsZT0iZGlzcGxheTogdGFibGUtY2VsbDsgd2hpdGUtc3BhY2U6IG5vd3JhcDsgbGluZS1oZWlnaHQ6IDEuNTsgbWF4LXdpZHRoOiAxMTRweDsgdGV4dC1hbGlnbjogY2VudGVyOyIgeG1sbnM9Imh0dHA6Ly93d3cudzMub3JnLzE5OTkveGh0bWwiPjxzcGFuIHN0eWxlPSIiIGNsYXNzPSJub2RlTGFiZWwgbWFya2Rvd24tbm9kZS1sYWJlbCI+PHA+UXVlc3Rpb248L3A+PC9zcGFuPjwvZGl2PjwvZm9yZWlnbk9iamVjdD48L2c+PC9nPjxnIHRyYW5zZm9ybT0idHJhbnNsYXRlKC04OC4wNTAwMDMwNTE3NTc4MSwgLTM2KSIgY2xhc3M9Im1lbWJlcnMtZ3JvdXAgdGV4dCI+PGcgdHJhbnNmb3JtPSJ0cmFuc2xhdGUoMCwtMTIpIiBzdHlsZT0iIiBjbGFzcz0ibGFiZWwiPjxmb3JlaWduT2JqZWN0IGhlaWdodD0iMjQiIHdpZHRoPSI3NC4xMzAwMDQ4ODI4MTI1Ij48ZGl2IHN0eWxlPSJkaXNwbGF5OiB0YWJsZS1jZWxsOyB3aGl0ZS1zcGFjZTogbm93cmFwOyBsaW5lLWhlaWdodDogMS41OyBtYXgtd2lkdGg6IDEzMHB4OyB0ZXh0LWFsaWduOiBjZW50ZXI7IiB4bWxucz0iaHR0cDovL3d3dy53My5vcmcvMTk5OS94aHRtbCI+PHNwYW4gc3R5bGU9IiIgY2xhc3M9Im5vZGVMYWJlbCBtYXJrZG93bi1ub2RlLWxhYmVsIj48cD4raWQ6IFN0cmluZzwvcD48L3NwYW4+PC9kaXY+PC9mb3JlaWduT2JqZWN0PjwvZz48ZyB0cmFuc2Zvcm09InRyYW5zbGF0ZSgwLDEyKSIgc3R5bGU9IiIgY2xhc3M9ImxhYmVsIj48Zm9yZWlnbk9iamVjdCBoZWlnaHQ9IjI0IiB3aWR0aD0iOTEuMzUwMDA2MTAzNTE1NjIiPjxkaXYgc3R5bGU9ImRpc3BsYXk6IHRhYmxlLWNlbGw7IHdoaXRlLXNwYWNlOiBub3dyYXA7IGxpbmUtaGVpZ2h0OiAxLjU7IG1heC13aWR0aDogMTQ0cHg7IHRleHQtYWxpZ246IGNlbnRlcjsiIHhtbG5zPSJodHRwOi8vd3d3LnczLm9yZy8xOTk5L3hodG1sIj48c3BhbiBzdHlsZT0iIiBjbGFzcz0ibm9kZUxhYmVsIG1hcmtkb3duLW5vZGUtbGFiZWwiPjxwPit0aXRsZTogU3RyaW5nPC9wPjwvc3Bhbj48L2Rpdj48L2ZvcmVpZ25PYmplY3Q+PC9nPjxnIHRyYW5zZm9ybT0idHJhbnNsYXRlKDAsMzYpIiBzdHlsZT0iIiBjbGFzcz0ibGFiZWwiPjxmb3JlaWduT2JqZWN0IGhlaWdodD0iMjQiIHdpZHRoPSI5Ny40NzAwMDEyMjA3MDMxMiI+PGRpdiBzdHlsZT0iZGlzcGxheTogdGFibGUtY2VsbDsgd2hpdGUtc3BhY2U6IG5vd3JhcDsgbGluZS1oZWlnaHQ6IDEuNTsgbWF4LXdpZHRoOiAxNTJweDsgdGV4dC1hbGlnbjogY2VudGVyOyIgeG1sbnM9Imh0dHA6Ly93d3cudzMub3JnLzE5OTkveGh0bWwiPjxzcGFuIHN0eWxlPSIiIGNsYXNzPSJub2RlTGFiZWwgbWFya2Rvd24tbm9kZS1sYWJlbCI+PHA+K2Nob2ljZXM6IExpc3Q8L3A+PC9zcGFuPjwvZGl2PjwvZm9yZWlnbk9iamVjdD48L2c+PGcgdHJhbnNmb3JtPSJ0cmFuc2xhdGUoMCw2MCkiIHN0eWxlPSIiIGNsYXNzPSJsYWJlbCI+PGZvcmVpZ25PYmplY3QgaGVpZ2h0PSIyNCIgd2lkdGg9IjE0Mi44NjAwMDA2MTAzNTE1NiI+PGRpdiBzdHlsZT0iZGlzcGxheTogdGFibGUtY2VsbDsgd2hpdGUtc3BhY2U6IG5vd3JhcDsgbGluZS1oZWlnaHQ6IDEuNTsgbWF4LXdpZHRoOiAyMDNweDsgdGV4dC1hbGlnbjogY2VudGVyOyIgeG1sbnM9Imh0dHA6Ly93d3cudzMub3JnLzE5OTkveGh0bWwiPjxzcGFuIHN0eWxlPSIiIGNsYXNzPSJub2RlTGFiZWwgbWFya2Rvd24tbm9kZS1sYWJlbCI+PHA+K2dvb2RDaG9pY2U6IFN0cmluZzwvcD48L3NwYW4+PC9kaXY+PC9mb3JlaWduT2JqZWN0PjwvZz48ZyB0cmFuc2Zvcm09InRyYW5zbGF0ZSgwLDg0KSIgc3R5bGU9IiIgY2xhc3M9ImxhYmVsIj48Zm9yZWlnbk9iamVjdCBoZWlnaHQ9IjI0IiB3aWR0aD0iNzUuODU1MDAzMzU2OTMzNiI+PGRpdiBzdHlsZT0iZGlzcGxheTogdGFibGUtY2VsbDsgd2hpdGUtc3BhY2U6IG5vd3JhcDsgbGluZS1oZWlnaHQ6IDEuNTsgbWF4LXdpZHRoOiAxMzJweDsgdGV4dC1hbGlnbjogY2VudGVyOyIgeG1sbnM9Imh0dHA6Ly93d3cudzMub3JnLzE5OTkveGh0bWwiPjxzcGFuIHN0eWxlPSIiIGNsYXNzPSJub2RlTGFiZWwgbWFya2Rvd24tbm9kZS1sYWJlbCI+PHA+K3BvaW50OiBpbnQ8L3A+PC9zcGFuPjwvZGl2PjwvZm9yZWlnbk9iamVjdD48L2c+PC9nPjxnIHRyYW5zZm9ybT0idHJhbnNsYXRlKC04OC4wNTAwMDMwNTE3NTc4MSwgMTA4KSIgY2xhc3M9Im1ldGhvZHMtZ3JvdXAgdGV4dCI+PC9nPjxnIHN0eWxlPSIiIGNsYXNzPSJkaXZpZGVyIj48cGF0aCBzdHlsZT0iIiBmaWxsPSJub25lIiBzdHJva2Utd2lkdGg9IjEuMyIgc3Ryb2tlPSIjOTk5IiBkPSJNLTEwMC4wNTAwMDMwNTE3NTc4MSAtNjAgQy00OC43NTcxMTIyNjM5ODE5NDUgLTYwLCAyLjUzNTc3ODUyMzc5MzkyMjUgLTYwLCAxMDAuMDUwMDAzMDUxNzU3ODEgLTYwIE0tMTAwLjA1MDAwMzA1MTc1NzgxIC02MCBDLTQ0Ljk1Njk5NDMwMzUzOTI1IC02MCwgMTAuMTM2MDE0NDQ0Njc5MzE5IC02MCwgMTAwLjA1MDAwMzA1MTc1NzgxIC02MCI+PC9wYXRoPjwvZz48ZyBzdHlsZT0iIiBjbGFzcz0iZGl2aWRlciI+PHBhdGggc3R5bGU9IiIgZmlsbD0ibm9uZSIgc3Ryb2tlLXdpZHRoPSIxLjMiIHN0cm9rZT0iIzk5OSIgZD0iTS0xMDAuMDUwMDAzMDUxNzU3ODEgODQgQy0yMi45ODgzMDU3MjIzMjE5ODIgODQsIDU0LjA3MzM5MTYwNzExMzg1IDg0LCAxMDAuMDUwMDAzMDUxNzU3ODEgODQgTS0xMDAuMDUwMDAzMDUxNzU3ODEgODQgQy0zMS43MzgxODc1MDQwOTc4MzcgODQsIDM2LjU3MzYyODA0MzU2MjE0IDg0LCAxMDAuMDUwMDAzMDUxNzU3ODEgODQiPjwvcGF0aD48L2c+PC9nPjxnIHRyYW5zZm9ybT0idHJhbnNsYXRlKDIyMS4xOTAwMTAwNzA4MDA3OCwgNzA4KSIgaWQ9ImNsYXNzSWQtQW5zd2VyLTIiIGNsYXNzPSJub2RlIGRlZmF1bHQiPjxnIGNsYXNzPSJiYXNpYyBsYWJlbC1jb250YWluZXIiPjxwYXRoIHN0eWxlPSIiIGZpbGw9IiNlZWUiIHN0cm9rZS13aWR0aD0iMCIgc3Ryb2tlPSJub25lIiBkPSJNLTEyNC4zODAwMDQ4ODI4MTI1IC05NiBMMTI0LjM4MDAwNDg4MjgxMjUgLTk2IEwxMjQuMzgwMDA0ODgyODEyNSA5NiBMLTEyNC4zODAwMDQ4ODI4MTI1IDk2Ij48L3BhdGg+PHBhdGggc3R5bGU9IiIgZmlsbD0ibm9uZSIgc3Ryb2tlLXdpZHRoPSIxLjMiIHN0cm9rZT0iIzk5OSIgZD0iTS0xMjQuMzgwMDA0ODgyODEyNSAtOTYgQy00Mi4wMjY4OTQ5MDQzMjkzNCAtOTYsIDQwLjMyNjIxNTA3NDE1MzgyIC05NiwgMTI0LjM4MDAwNDg4MjgxMjUgLTk2IE0tMTI0LjM4MDAwNDg4MjgxMjUgLTk2IEMtNjcuODQwNTk1OTc2NjkzMjQgLTk2LCAtMTEuMzAxMTg3MDcwNTczOTYgLTk2LCAxMjQuMzgwMDA0ODgyODEyNSAtOTYgTTEyNC4zODAwMDQ4ODI4MTI1IC05NiBDMTI0LjM4MDAwNDg4MjgxMjUgLTQ0LjE3MDM0OTYyNTg3ODcxNCwgMTI0LjM4MDAwNDg4MjgxMjUgNy42NTkzMDA3NDgyNDI1NzIsIDEyNC4zODAwMDQ4ODI4MTI1IDk2IE0xMjQuMzgwMDA0ODgyODEyNSAtOTYgQzEyNC4zODAwMDQ4ODI4MTI1IC0zMy43MjMwODIzMDAxNjMxODUsIDEyNC4zODAwMDQ4ODI4MTI1IDI4LjU1MzgzNTM5OTY3MzYzLCAxMjQuMzgwMDA0ODgyODEyNSA5NiBNMTI0LjM4MDAwNDg4MjgxMjUgOTYgQzM1LjQxODg1MDAyNDU2NTM0NCA5NiwgLTUzLjU0MjMwNDgzMzY4MTgxIDk2LCAtMTI0LjM4MDAwNDg4MjgxMjUgOTYgTTEyNC4zODAwMDQ4ODI4MTI1IDk2IEMzNy41Njg0NjU5OTM2NzY1NTQgOTYsIC00OS4yNDMwNzI4OTU0NTkzOSA5NiwgLTEyNC4zODAwMDQ4ODI4MTI1IDk2IE0tMTI0LjM4MDAwNDg4MjgxMjUgOTYgQy0xMjQuMzgwMDA0ODgyODEyNSAzNi40Mjg4Mjk2MDQ1OTUxNDQsIC0xMjQuMzgwMDA0ODgyODEyNSAtMjMuMTQyMzQwNzkwODA5NzEyLCAtMTI0LjM4MDAwNDg4MjgxMjUgLTk2IE0tMTI0LjM4MDAwNDg4MjgxMjUgOTYgQy0xMjQuMzgwMDA0ODgyODEyNSA1Mi45MTg0MzM5NTA3Njc1OCwgLTEyNC4zODAwMDQ4ODI4MTI1IDkuODM2ODY3OTAxNTM1MTU3LCAtMTI0LjM4MDAwNDg4MjgxMjUgLTk2Ij48L3BhdGg+PC9nPjxnIHRyYW5zZm9ybT0idHJhbnNsYXRlKDAsIC03MikiIGNsYXNzPSJhbm5vdGF0aW9uLWdyb3VwIHRleHQiPjwvZz48ZyB0cmFuc2Zvcm09InRyYW5zbGF0ZSgtMjcuNTEwMDAwMjI4ODgxODM2LCAtNzIpIiBjbGFzcz0ibGFiZWwtZ3JvdXAgdGV4dCI+PGcgdHJhbnNmb3JtPSJ0cmFuc2xhdGUoMCwtMTIpIiBzdHlsZT0iZm9udC13ZWlnaHQ6IGJvbGRlciIgY2xhc3M9ImxhYmVsIj48Zm9yZWlnbk9iamVjdCBoZWlnaHQ9IjI0IiB3aWR0aD0iNTUuMDIwMDAwNDU3NzYzNjciPjxkaXYgc3R5bGU9ImRpc3BsYXk6IHRhYmxlLWNlbGw7IHdoaXRlLXNwYWNlOiBub3dyYXA7IGxpbmUtaGVpZ2h0OiAxLjU7IG1heC13aWR0aDogMTA0cHg7IHRleHQtYWxpZ246IGNlbnRlcjsiIHhtbG5zPSJodHRwOi8vd3d3LnczLm9yZy8xOTk5L3hodG1sIj48c3BhbiBzdHlsZT0iIiBjbGFzcz0ibm9kZUxhYmVsIG1hcmtkb3duLW5vZGUtbGFiZWwiPjxwPkFuc3dlcjwvcD48L3NwYW4+PC9kaXY+PC9mb3JlaWduT2JqZWN0PjwvZz48L2c+PGcgdHJhbnNmb3JtPSJ0cmFuc2xhdGUoLTExMi4zODAwMDQ4ODI4MTI1LCAtMjQpIiBjbGFzcz0ibWVtYmVycy1ncm91cCB0ZXh0Ij48ZyB0cmFuc2Zvcm09InRyYW5zbGF0ZSgwLC0xMikiIHN0eWxlPSIiIGNsYXNzPSJsYWJlbCI+PGZvcmVpZ25PYmplY3QgaGVpZ2h0PSIyNCIgd2lkdGg9Ijc0LjEzMDAwNDg4MjgxMjUiPjxkaXYgc3R5bGU9ImRpc3BsYXk6IHRhYmxlLWNlbGw7IHdoaXRlLXNwYWNlOiBub3dyYXA7IGxpbmUtaGVpZ2h0OiAxLjU7IG1heC13aWR0aDogMTMwcHg7IHRleHQtYWxpZ246IGNlbnRlcjsiIHhtbG5zPSJodHRwOi8vd3d3LnczLm9yZy8xOTk5L3hodG1sIj48c3BhbiBzdHlsZT0iIiBjbGFzcz0ibm9kZUxhYmVsIG1hcmtkb3duLW5vZGUtbGFiZWwiPjxwPitpZDogU3RyaW5nPC9wPjwvc3Bhbj48L2Rpdj48L2ZvcmVpZ25PYmplY3Q+PC9nPjxnIHRyYW5zZm9ybT0idHJhbnNsYXRlKDAsMTIpIiBzdHlsZT0iIiBjbGFzcz0ibGFiZWwiPjxmb3JlaWduT2JqZWN0IGhlaWdodD0iMjQiIHdpZHRoPSIxMzUuMDkwMDExNTk2Njc5NyI+PGRpdiBzdHlsZT0iZGlzcGxheTogdGFibGUtY2VsbDsgd2hpdGUtc3BhY2U6IG5vd3JhcDsgbGluZS1oZWlnaHQ6IDEuNTsgbWF4LXdpZHRoOiAxOTJweDsgdGV4dC1hbGlnbjogY2VudGVyOyIgeG1sbnM9Imh0dHA6Ly93d3cudzMub3JnLzE5OTkveGh0bWwiPjxzcGFuIHN0eWxlPSIiIGNsYXNzPSJub2RlTGFiZWwgbWFya2Rvd24tbm9kZS1sYWJlbCI+PHA+K3F1ZXN0aW9uSWQ6IFN0cmluZzwvcD48L3NwYW4+PC9kaXY+PC9mb3JlaWduT2JqZWN0PjwvZz48ZyB0cmFuc2Zvcm09InRyYW5zbGF0ZSgwLDM2KSIgc3R5bGU9IiIgY2xhc3M9ImxhYmVsIj48Zm9yZWlnbk9iamVjdCBoZWlnaHQ9IjI0IiB3aWR0aD0iMTU5LjIxMDAwNjcxMzg2NzIiPjxkaXYgc3R5bGU9ImRpc3BsYXk6IHRhYmxlLWNlbGw7IHdoaXRlLXNwYWNlOiBub3dyYXA7IGxpbmUtaGVpZ2h0OiAxLjU7IG1heC13aWR0aDogMjE1cHg7IHRleHQtYWxpZ246IGNlbnRlcjsiIHhtbG5zPSJodHRwOi8vd3d3LnczLm9yZy8xOTk5L3hodG1sIj48c3BhbiBzdHlsZT0iIiBjbGFzcz0ibm9kZUxhYmVsIG1hcmtkb3duLW5vZGUtbGFiZWwiPjxwPithbnN3ZXJDaG9pY2U6IFN0cmluZzwvcD48L3NwYW4+PC9kaXY+PC9mb3JlaWduT2JqZWN0PjwvZz48L2c+PGcgdHJhbnNmb3JtPSJ0cmFuc2xhdGUoLTExMi4zODAwMDQ4ODI4MTI1LCA3MikiIGNsYXNzPSJtZXRob2RzLWdyb3VwIHRleHQiPjxnIHRyYW5zZm9ybT0idHJhbnNsYXRlKDAsLTEyKSIgc3R5bGU9IiIgY2xhc3M9ImxhYmVsIj48Zm9yZWlnbk9iamVjdCBoZWlnaHQ9IjI0IiB3aWR0aD0iMTk3LjI1MDAxNTI1ODc4OTA2Ij48ZGl2IHN0eWxlPSJkaXNwbGF5OiB0YWJsZS1jZWxsOyB3aGl0ZS1zcGFjZTogbm93cmFwOyBsaW5lLWhlaWdodDogMS41OyBtYXgtd2lkdGg6IDI0OXB4OyB0ZXh0LWFsaWduOiBjZW50ZXI7IiB4bWxucz0iaHR0cDovL3d3dy53My5vcmcvMTk5OS94aHRtbCI+PHNwYW4gc3R5bGU9IiIgY2xhc3M9Im5vZGVMYWJlbCBtYXJrZG93bi1ub2RlLWxhYmVsIj48cD4raXNHb29kKHF1aXo6IFF1aXopIDogOiBib29sPC9wPjwvc3Bhbj48L2Rpdj48L2ZvcmVpZ25PYmplY3Q+PC9nPjwvZz48ZyBzdHlsZT0iIiBjbGFzcz0iZGl2aWRlciI+PHBhdGggc3R5bGU9IiIgZmlsbD0ibm9uZSIgc3Ryb2tlLXdpZHRoPSIxLjMiIHN0cm9rZT0iIzk5OSIgZD0iTS0xMjQuMzgwMDA0ODgyODEyNSAtNDggQy0zOS42MDE3MjAwMDc2MzMwNSAtNDgsIDQ1LjE3NjU2NDg2NzU0NjQgLTQ4LCAxMjQuMzgwMDA0ODgyODEyNSAtNDggTS0xMjQuMzgwMDA0ODgyODEyNSAtNDggQy02My4wNzM3OTExMTA0OTc0MiAtNDgsIC0xLjc2NzU3NzMzODE4MjMzNDggLTQ4LCAxMjQuMzgwMDA0ODgyODEyNSAtNDgiPjwvcGF0aD48L2c+PGcgc3R5bGU9IiIgY2xhc3M9ImRpdmlkZXIiPjxwYXRoIHN0eWxlPSIiIGZpbGw9Im5vbmUiIHN0cm9rZS13aWR0aD0iMS4zIiBzdHJva2U9IiM5OTkiIGQ9Ik0tMTI0LjM4MDAwNDg4MjgxMjUgNDggQy00MC4xOTk4OTA2NTMyNzc1OCA0OCwgNDMuOTgwMjIzNTc2MjU3MzQ1IDQ4LCAxMjQuMzgwMDA0ODgyODEyNSA0OCBNLTEyNC4zODAwMDQ4ODI4MTI1IDQ4IEMtNDguNjg2MDI5MDc4OTQ5NzkgNDgsIDI3LjAwNzk0NjcyNDkxMjkyNyA0OCwgMTI0LjM4MDAwNDg4MjgxMjUgNDgiPjwvcGF0aD48L2c+PC9nPjxnIHRyYW5zZm9ybT0idHJhbnNsYXRlKDYwMi44MTc1Mjc3NzA5OTYxLCA3MDgpIiBpZD0iY2xhc3NJZC1QbGF5ZXItMyIgY2xhc3M9Im5vZGUgZGVmYXVsdCI+PGcgY2xhc3M9ImJhc2ljIGxhYmVsLWNvbnRhaW5lciI+PHBhdGggc3R5bGU9IiIgZmlsbD0iI2VlZSIgc3Ryb2tlLXdpZHRoPSIwIiBzdHJva2U9Im5vbmUiIGQ9Ik0tMTE2LjU4MDAwMTgzMTA1NDY5IC05NiBMMTE2LjU4MDAwMTgzMTA1NDY5IC05NiBMMTE2LjU4MDAwMTgzMTA1NDY5IDk2IEwtMTE2LjU4MDAwMTgzMTA1NDY5IDk2Ij48L3BhdGg+PHBhdGggc3R5bGU9IiIgZmlsbD0ibm9uZSIgc3Ryb2tlLXdpZHRoPSIxLjMiIHN0cm9rZT0iIzk5OSIgZD0iTS0xMTYuNTgwMDAxODMxMDU0NjkgLTk2IEMtMjkuMDAyMDExMzM5NDc4OTcgLTk2LCA1OC41NzU5NzkxNTIwOTY3NSAtOTYsIDExNi41ODAwMDE4MzEwNTQ2OSAtOTYgTS0xMTYuNTgwMDAxODMxMDU0NjkgLTk2IEMtNTEuMDIxMjQxMzA2Mzc5NDggLTk2LCAxNC41Mzc1MTkyMTgyOTU3MjggLTk2LCAxMTYuNTgwMDAxODMxMDU0NjkgLTk2IE0xMTYuNTgwMDAxODMxMDU0NjkgLTk2IEMxMTYuNTgwMDAxODMxMDU0NjkgLTQ2LjIyNjQ5MzcyMzgwMTk0LCAxMTYuNTgwMDAxODMxMDU0NjkgMy41NDcwMTI1NTIzOTYxMjYsIDExNi41ODAwMDE4MzEwNTQ2OSA5NiBNMTE2LjU4MDAwMTgzMTA1NDY5IC05NiBDMTE2LjU4MDAwMTgzMTA1NDY5IC0yNy4wNjAzMDM4NjQ1ODIxOCwgMTE2LjU4MDAwMTgzMTA1NDY5IDQxLjg3OTM5MjI3MDgzNTY0LCAxMTYuNTgwMDAxODMxMDU0NjkgOTYgTTExNi41ODAwMDE4MzEwNTQ2OSA5NiBDNjguOTA1NTc3NDcwOTUwNDYgOTYsIDIxLjIzMTE1MzExMDg0NjIzNiA5NiwgLTExNi41ODAwMDE4MzEwNTQ2OSA5NiBNMTE2LjU4MDAwMTgzMTA1NDY5IDk2IEMyNy42MzIyNTE1MzU1MTM4NiA5NiwgLTYxLjMxNTQ5ODc2MDAyNjk3IDk2LCAtMTE2LjU4MDAwMTgzMTA1NDY5IDk2IE0tMTE2LjU4MDAwMTgzMTA1NDY5IDk2IEMtMTE2LjU4MDAwMTgzMTA1NDY5IDQ4LjM2ODAyODk0NTk3MDM3LCAtMTE2LjU4MDAwMTgzMTA1NDY5IDAuNzM2MDU3ODkxOTQwNzQ1OSwgLTExNi41ODAwMDE4MzEwNTQ2OSAtOTYgTS0xMTYuNTgwMDAxODMxMDU0NjkgOTYgQy0xMTYuNTgwMDAxODMxMDU0NjkgNDEuMTM2MDkxNzc3NjU4NTksIC0xMTYuNTgwMDAxODMxMDU0NjkgLTEzLjcyNzgxNjQ0NDY4MjgxNiwgLTExNi41ODAwMDE4MzEwNTQ2OSAtOTYiPjwvcGF0aD48L2c+PGcgdHJhbnNmb3JtPSJ0cmFuc2xhdGUoMCwgLTcyKSIgY2xhc3M9ImFubm90YXRpb24tZ3JvdXAgdGV4dCI+PC9nPjxnIHRyYW5zZm9ybT0idHJhbnNsYXRlKC0yMy41OTUwMDEyMjA3MDMxMjUsIC03MikiIGNsYXNzPSJsYWJlbC1ncm91cCB0ZXh0Ij48ZyB0cmFuc2Zvcm09InRyYW5zbGF0ZSgwLC0xMikiIHN0eWxlPSJmb250LXdlaWdodDogYm9sZGVyIiBjbGFzcz0ibGFiZWwiPjxmb3JlaWduT2JqZWN0IGhlaWdodD0iMjQiIHdpZHRoPSI0Ny4xOTAwMDI0NDE0MDYyNSI+PGRpdiBzdHlsZT0iZGlzcGxheTogdGFibGUtY2VsbDsgd2hpdGUtc3BhY2U6IG5vd3JhcDsgbGluZS1oZWlnaHQ6IDEuNTsgbWF4LXdpZHRoOiA5NHB4OyB0ZXh0LWFsaWduOiBjZW50ZXI7IiB4bWxucz0iaHR0cDovL3d3dy53My5vcmcvMTk5OS94aHRtbCI+PHNwYW4gc3R5bGU9IiIgY2xhc3M9Im5vZGVMYWJlbCBtYXJrZG93bi1ub2RlLWxhYmVsIj48cD5QbGF5ZXI8L3A+PC9zcGFuPjwvZGl2PjwvZm9yZWlnbk9iamVjdD48L2c+PC9nPjxnIHRyYW5zZm9ybT0idHJhbnNsYXRlKC0xMDQuNTgwMDAxODMxMDU0NjksIC0yNCkiIGNsYXNzPSJtZW1iZXJzLWdyb3VwIHRleHQiPjxnIHRyYW5zZm9ybT0idHJhbnNsYXRlKDAsLTEyKSIgc3R5bGU9IiIgY2xhc3M9ImxhYmVsIj48Zm9yZWlnbk9iamVjdCBoZWlnaHQ9IjI0IiB3aWR0aD0iOTkuODEwMDA1MTg3OTg4MjgiPjxkaXYgc3R5bGU9ImRpc3BsYXk6IHRhYmxlLWNlbGw7IHdoaXRlLXNwYWNlOiBub3dyYXA7IGxpbmUtaGVpZ2h0OiAxLjU7IG1heC13aWR0aDogMTU2cHg7IHRleHQtYWxpZ246IGNlbnRlcjsiIHhtbG5zPSJodHRwOi8vd3d3LnczLm9yZy8xOTk5L3hodG1sIj48c3BhbiBzdHlsZT0iIiBjbGFzcz0ibm9kZUxhYmVsIG1hcmtkb3duLW5vZGUtbGFiZWwiPjxwPituYW1lOiBTdHJpbmc8L3A+PC9zcGFuPjwvZGl2PjwvZm9yZWlnbk9iamVjdD48L2c+PGcgdHJhbnNmb3JtPSJ0cmFuc2xhdGUoMCwxMikiIHN0eWxlPSIiIGNsYXNzPSJsYWJlbCI+PGZvcmVpZ25PYmplY3QgaGVpZ2h0PSIyNCIgd2lkdGg9Ijc2LjYzNTAwMjEzNjIzMDQ3Ij48ZGl2IHN0eWxlPSJkaXNwbGF5OiB0YWJsZS1jZWxsOyB3aGl0ZS1zcGFjZTogbm93cmFwOyBsaW5lLWhlaWdodDogMS41OyBtYXgtd2lkdGg6IDEzMnB4OyB0ZXh0LWFsaWduOiBjZW50ZXI7IiB4bWxucz0iaHR0cDovL3d3dy53My5vcmcvMTk5OS94aHRtbCI+PHNwYW4gc3R5bGU9IiIgY2xhc3M9Im5vZGVMYWJlbCBtYXJrZG93bi1ub2RlLWxhYmVsIj48cD4rc2NvcmU6IGludDwvcD48L3NwYW4+PC9kaXY+PC9mb3JlaWduT2JqZWN0PjwvZz48ZyB0cmFuc2Zvcm09InRyYW5zbGF0ZSgwLDM2KSIgc3R5bGU9IiIgY2xhc3M9ImxhYmVsIj48Zm9yZWlnbk9iamVjdCBoZWlnaHQ9IjI0IiB3aWR0aD0iMTg1LjU2NTAwMjQ0MTQwNjI1Ij48ZGl2IHN0eWxlPSJkaXNwbGF5OiB0YWJsZS1jZWxsOyB3aGl0ZS1zcGFjZTogbm93cmFwOyBsaW5lLWhlaWdodDogMS41OyBtYXgtd2lkdGg6IDI0MXB4OyB0ZXh0LWFsaWduOiBjZW50ZXI7IiB4bWxucz0iaHR0cDovL3d3dy53My5vcmcvMTk5OS94aHRtbCI+PHNwYW4gc3R5bGU9IiIgY2xhc3M9Im5vZGVMYWJlbCBtYXJrZG93bi1ub2RlLWxhYmVsIj48cD4rc2NvcmVQZXJjZW50YWdlOiBkb3VibGU8L3A+PC9zcGFuPjwvZGl2PjwvZm9yZWlnbk9iamVjdD48L2c+PC9nPjxnIHRyYW5zZm9ybT0idHJhbnNsYXRlKC0xMDQuNTgwMDAxODMxMDU0NjksIDcyKSIgY2xhc3M9Im1ldGhvZHMtZ3JvdXAgdGV4dCI+PGcgdHJhbnNmb3JtPSJ0cmFuc2xhdGUoMCwtMTIpIiBzdHlsZT0iIiBjbGFzcz0ibGFiZWwiPjxmb3JlaWduT2JqZWN0IGhlaWdodD0iMjQiIHdpZHRoPSIxMjEuMzM1MDA2NzEzODY3MTkiPjxkaXYgc3R5bGU9ImRpc3BsYXk6IHRhYmxlLWNlbGw7IHdoaXRlLXNwYWNlOiBub3dyYXA7IGxpbmUtaGVpZ2h0OiAxLjU7IG1heC13aWR0aDogMTc1cHg7IHRleHQtYWxpZ246IGNlbnRlcjsiIHhtbG5zPSJodHRwOi8vd3d3LnczLm9yZy8xOTk5L3hodG1sIj48c3BhbiBzdHlsZT0iIiBjbGFzcz0ibm9kZUxhYmVsIG1hcmtkb3duLW5vZGUtbGFiZWwiPjxwPit0b0pzb24oKSA6IDogTWFwPC9wPjwvc3Bhbj48L2Rpdj48L2ZvcmVpZ25PYmplY3Q+PC9nPjwvZz48ZyBzdHlsZT0iIiBjbGFzcz0iZGl2aWRlciI+PHBhdGggc3R5bGU9IiIgZmlsbD0ibm9uZSIgc3Ryb2tlLXdpZHRoPSIxLjMiIHN0cm9rZT0iIzk5OSIgZD0iTS0xMTYuNTgwMDAxODMxMDU0NjkgLTQ4IEMtNjAuNDI4OTYzOTU2MTA4MjYgLTQ4LCAtNC4yNzc5MjYwODExNjE4MzcgLTQ4LCAxMTYuNTgwMDAxODMxMDU0NjkgLTQ4IE0tMTE2LjU4MDAwMTgzMTA1NDY5IC00OCBDLTU0LjMzMzA0OTQ2NDg5NzYxIC00OCwgNy45MTM5MDI5MDEyNTk0NjIgLTQ4LCAxMTYuNTgwMDAxODMxMDU0NjkgLTQ4Ij48L3BhdGg+PC9nPjxnIHN0eWxlPSIiIGNsYXNzPSJkaXZpZGVyIj48cGF0aCBzdHlsZT0iIiBmaWxsPSJub25lIiBzdHJva2Utd2lkdGg9IjEuMyIgc3Ryb2tlPSIjOTk5IiBkPSJNLTExNi41ODAwMDE4MzEwNTQ2OSA0OCBDLTU1LjkwNDM2NzM2MTY4MjQwNCA0OCwgNC43NzEyNjcxMDc2ODk4OCA0OCwgMTE2LjU4MDAwMTgzMTA1NDY5IDQ4IE0tMTE2LjU4MDAwMTgzMTA1NDY5IDQ4IEMtNjcuOTEzNzA0NjUxNTQyMSA0OCwgLTE5LjI0NzQwNzQ3MjAyOTUyMiA0OCwgMTE2LjU4MDAwMTgzMTA1NDY5IDQ4Ij48L3BhdGg+PC9nPjwvZz48ZyB0cmFuc2Zvcm09InRyYW5zbGF0ZSg0NjQuNTI4NzcwNDQ2Nzc3MzQsIDQ1NCkiIGlkPSJjbGFzc0lkLVN1Ym1pc3Npb24tNCIgY2xhc3M9Im5vZGUgZGVmYXVsdCI+PGcgY2xhc3M9ImJhc2ljIGxhYmVsLWNvbnRhaW5lciI+PHBhdGggc3R5bGU9IiIgZmlsbD0iI2VlZSIgc3Ryb2tlLXdpZHRoPSIwIiBzdHJva2U9Im5vbmUiIGQ9Ik0tOTMuMjg4NzU3MzI0MjE4NzUgLTg0IEw5My4yODg3NTczMjQyMTg3NSAtODQgTDkzLjI4ODc1NzMyNDIxODc1IDg0IEwtOTMuMjg4NzU3MzI0MjE4NzUgODQiPjwvcGF0aD48cGF0aCBzdHlsZT0iIiBmaWxsPSJub25lIiBzdHJva2Utd2lkdGg9IjEuMyIgc3Ryb2tlPSIjOTk5IiBkPSJNLTkzLjI4ODc1NzMyNDIxODc1IC04NCBDLTQ2LjgxODY2MTg0MzQ4MjMgLTg0LCAtMC4zNDg1NjYzNjI3NDU4NTY0IC04NCwgOTMuMjg4NzU3MzI0MjE4NzUgLTg0IE0tOTMuMjg4NzU3MzI0MjE4NzUgLTg0IEMtMzIuODU3NzUzMDM5ODA1Mzk1IC04NCwgMjcuNTczMjUxMjQ0NjA3OTYgLTg0LCA5My4yODg3NTczMjQyMTg3NSAtODQgTTkzLjI4ODc1NzMyNDIxODc1IC04NCBDOTMuMjg4NzU3MzI0MjE4NzUgLTI1LjE1OTU4NzU5NjM0NTIzMywgOTMuMjg4NzU3MzI0MjE4NzUgMzMuNjgwODI0ODA3MzA5NTM0LCA5My4yODg3NTczMjQyMTg3NSA4NCBNOTMuMjg4NzU3MzI0MjE4NzUgLTg0IEM5My4yODg3NTczMjQyMTg3NSAtMjQuNzg4ODUxODQxNDg5MzMzLCA5My4yODg3NTczMjQyMTg3NSAzNC40MjIyOTYzMTcwMjEzMzUsIDkzLjI4ODc1NzMyNDIxODc1IDg0IE05My4yODg3NTczMjQyMTg3NSA4NCBDMzMuNTk1NDYzOTM3MTYwOTM2IDg0LCAtMjYuMDk3ODI5NDQ5ODk2ODc4IDg0LCAtOTMuMjg4NzU3MzI0MjE4NzUgODQgTTkzLjI4ODc1NzMyNDIxODc1IDg0IEMyMy45NjI4MjI1MTg1NTU3MjYgODQsIC00NS4zNjMxMTIyODcxMDczIDg0LCAtOTMuMjg4NzU3MzI0MjE4NzUgODQgTS05My4yODg3NTczMjQyMTg3NSA4NCBDLTkzLjI4ODc1NzMyNDIxODc1IDMxLjcwNDIzODgxNDI3MzM2NywgLTkzLjI4ODc1NzMyNDIxODc1IC0yMC41OTE1MjIzNzE0NTMyNjYsIC05My4yODg3NTczMjQyMTg3NSAtODQgTS05My4yODg3NTczMjQyMTg3NSA4NCBDLTkzLjI4ODc1NzMyNDIxODc1IDI1Ljc4OTUwMjc3ODM5OTkxNCwgLTkzLjI4ODc1NzMyNDIxODc1IC0zMi40MjA5OTQ0NDMyMDAxNywgLTkzLjI4ODc1NzMyNDIxODc1IC04NCI+PC9wYXRoPjwvZz48ZyB0cmFuc2Zvcm09InRyYW5zbGF0ZSgwLCAtNjApIiBjbGFzcz0iYW5ub3RhdGlvbi1ncm91cCB0ZXh0Ij48L2c+PGcgdHJhbnNmb3JtPSJ0cmFuc2xhdGUoLTQxLjI0MjUwMDMwNTE3NTc4LCAtNjApIiBjbGFzcz0ibGFiZWwtZ3JvdXAgdGV4dCI+PGcgdHJhbnNmb3JtPSJ0cmFuc2xhdGUoMCwtMTIpIiBzdHlsZT0iZm9udC13ZWlnaHQ6IGJvbGRlciIgY2xhc3M9ImxhYmVsIj48Zm9yZWlnbk9iamVjdCBoZWlnaHQ9IjI0IiB3aWR0aD0iODIuNDg1MDAwNjEwMzUxNTYiPjxkaXYgc3R5bGU9ImRpc3BsYXk6IHRhYmxlLWNlbGw7IHdoaXRlLXNwYWNlOiBub3dyYXA7IGxpbmUtaGVpZ2h0OiAxLjU7IG1heC13aWR0aDogMTMwcHg7IHRleHQtYWxpZ246IGNlbnRlcjsiIHhtbG5zPSJodHRwOi8vd3d3LnczLm9yZy8xOTk5L3hodG1sIj48c3BhbiBzdHlsZT0iIiBjbGFzcz0ibm9kZUxhYmVsIG1hcmtkb3duLW5vZGUtbGFiZWwiPjxwPlN1Ym1pc3Npb248L3A+PC9zcGFuPjwvZGl2PjwvZm9yZWlnbk9iamVjdD48L2c+PC9nPjxnIHRyYW5zZm9ybT0idHJhbnNsYXRlKC04MS4yODg3NTczMjQyMTg3NSwgLTEyKSIgY2xhc3M9Im1lbWJlcnMtZ3JvdXAgdGV4dCI+PGcgdHJhbnNmb3JtPSJ0cmFuc2xhdGUoMCwtMTIpIiBzdHlsZT0iIiBjbGFzcz0ibGFiZWwiPjxmb3JlaWduT2JqZWN0IGhlaWdodD0iMjQiIHdpZHRoPSI5NS44OTUwMDQyNzI0NjA5NCI+PGRpdiBzdHlsZT0iZGlzcGxheTogdGFibGUtY2VsbDsgd2hpdGUtc3BhY2U6IG5vd3JhcDsgbGluZS1oZWlnaHQ6IDEuNTsgbWF4LXdpZHRoOiAxNTBweDsgdGV4dC1hbGlnbjogY2VudGVyOyIgeG1sbnM9Imh0dHA6Ly93d3cudzMub3JnLzE5OTkveGh0bWwiPjxzcGFuIHN0eWxlPSIiIGNsYXNzPSJub2RlTGFiZWwgbWFya2Rvd24tbm9kZS1sYWJlbCI+PHA+K3BsYXllcnM6IExpc3Q8L3A+PC9zcGFuPjwvZGl2PjwvZm9yZWlnbk9iamVjdD48L2c+PGcgdHJhbnNmb3JtPSJ0cmFuc2xhdGUoMCwxMikiIHN0eWxlPSIiIGNsYXNzPSJsYWJlbCI+PGZvcmVpZ25PYmplY3QgaGVpZ2h0PSIyNCIgd2lkdGg9IjEwMS40OTAwMDU0OTMxNjQwNiI+PGRpdiBzdHlsZT0iZGlzcGxheTogdGFibGUtY2VsbDsgd2hpdGUtc3BhY2U6IG5vd3JhcDsgbGluZS1oZWlnaHQ6IDEuNTsgbWF4LXdpZHRoOiAxNTZweDsgdGV4dC1hbGlnbjogY2VudGVyOyIgeG1sbnM9Imh0dHA6Ly93d3cudzMub3JnLzE5OTkveGh0bWwiPjxzcGFuIHN0eWxlPSIiIGNsYXNzPSJub2RlTGFiZWwgbWFya2Rvd24tbm9kZS1sYWJlbCI+PHA+K2Fuc3dlcnM6IExpc3Q8L3A+PC9zcGFuPjwvZGl2PjwvZm9yZWlnbk9iamVjdD48L2c+PC9nPjxnIHRyYW5zZm9ybT0idHJhbnNsYXRlKC04MS4yODg3NTczMjQyMTg3NSwgNjApIiBjbGFzcz0ibWV0aG9kcy1ncm91cCB0ZXh0Ij48ZyB0cmFuc2Zvcm09InRyYW5zbGF0ZSgwLC0xMikiIHN0eWxlPSIiIGNsYXNzPSJsYWJlbCI+PGZvcmVpZ25PYmplY3QgaGVpZ2h0PSIyNCIgd2lkdGg9IjEyMS4zMzUwMDY3MTM4NjcxOSI+PGRpdiBzdHlsZT0iZGlzcGxheTogdGFibGUtY2VsbDsgd2hpdGUtc3BhY2U6IG5vd3JhcDsgbGluZS1oZWlnaHQ6IDEuNTsgbWF4LXdpZHRoOiAxNzVweDsgdGV4dC1hbGlnbjogY2VudGVyOyIgeG1sbnM9Imh0dHA6Ly93d3cudzMub3JnLzE5OTkveGh0bWwiPjxzcGFuIHN0eWxlPSIiIGNsYXNzPSJub2RlTGFiZWwgbWFya2Rvd24tbm9kZS1sYWJlbCI+PHA+K3RvSnNvbigpIDogOiBNYXA8L3A+PC9zcGFuPjwvZGl2PjwvZm9yZWlnbk9iamVjdD48L2c+PC9nPjxnIHN0eWxlPSIiIGNsYXNzPSJkaXZpZGVyIj48cGF0aCBzdHlsZT0iIiBmaWxsPSJub25lIiBzdHJva2Utd2lkdGg9IjEuMyIgc3Ryb2tlPSIjOTk5IiBkPSJNLTkzLjI4ODc1NzMyNDIxODc1IC0zNiBDLTQ1LjY5Njg0Mjc1OTYzOTM1IC0zNiwgMS44OTUwNzE4MDQ5NDAwNDUgLTM2LCA5My4yODg3NTczMjQyMTg3NSAtMzYgTS05My4yODg3NTczMjQyMTg3NSAtMzYgQy01MC43MDY4NDM0MDM2NTUyNTYgLTM2LCAtOC4xMjQ5Mjk0ODMwOTE3NjIgLTM2LCA5My4yODg3NTczMjQyMTg3NSAtMzYiPjwvcGF0aD48L2c+PGcgc3R5bGU9IiIgY2xhc3M9ImRpdmlkZXIiPjxwYXRoIHN0eWxlPSIiIGZpbGw9Im5vbmUiIHN0cm9rZS13aWR0aD0iMS4zIiBzdHJva2U9IiM5OTkiIGQ9Ik0tOTMuMjg4NzU3MzI0MjE4NzUgMzYgQy00OS40MzAyNDQ4OTk0OTQ1NSAzNiwgLTUuNTcxNzMyNDc0NzcwMzQzIDM2LCA5My4yODg3NTczMjQyMTg3NSAzNiBNLTkzLjI4ODc1NzMyNDIxODc1IDM2IEMtMjQuMzI2MjI0ODQwMzU0Njk4IDM2LCA0NC42MzYzMDc2NDM1MDkzNTUgMzYsIDkzLjI4ODc1NzMyNDIxODc1IDM2Ij48L3BhdGg+PC9nPjwvZz48L2c+PC9nPjwvZz48L3N2Zz4=;" parent="1" vertex="1">
                        <mxGeometry x="90" y="-100" width="727.3974609375" height="930.4000244140625" as="geometry"/>
                    </mxCell>
                </UserObject>
            </root>
        </mxGraphModel>
    </diagram>
</mxfile>